<svg xmlns="http://www.w3.org/2000/svg" width="300" height="300" viewBox="0 0 300 300" version="1.1"><path d="M 129.909 48.496 C 90.255 55.980, 58.274 85.806, 47.354 125.487 C 44.253 136.759, 43.169 155.829, 44.934 168.097 C 50.871 209.375, 81.296 243.292, 122.572 254.645 C 131.515 257.105, 134.187 257.382, 149.500 257.438 C 162.512 257.485, 168.206 257.085, 173.773 255.733 C 212.840 246.240, 242.052 218.011, 252.646 179.513 C 255.747 168.241, 256.831 149.171, 255.066 136.903 C 249.127 95.610, 218.464 61.452, 177.428 50.416 C 165.050 47.087, 142.254 46.166, 129.909 48.496 M 140.636 57.086 C 124.502 58.809, 108.690 64.444, 95.838 73.050 C 92.352 75.384, 85.450 81.411, 80.500 86.442 C 60.864 106.402, 51.508 132.868, 54.112 161.089 C 59.609 220.656, 116.568 260.148, 175.156 245.013 C 203.589 237.668, 228.465 215.706, 239.612 188.109 C 258.484 141.386, 236.653 86.729, 190.625 65.462 C 181.766 61.369, 170.904 58.276, 162.664 57.499 C 149.905 56.296, 148.310 56.266, 140.636 57.086 M 93.075 83.781 C 90.659 85.788, 86.054 90.737, 82.842 94.780 C 77.677 101.279, 77 102.652, 77 106.625 C 77 109.953, 77.324 110.923, 78.250 110.367 C 79.099 109.857, 79.060 110.158, 78.128 111.308 C 76.370 113.475, 77.416 113.458, 81.136 111.260 C 82.756 110.304, 86.325 106.503, 89.068 102.815 C 91.810 99.127, 95.954 94.455, 98.277 92.433 L 102.500 88.757 98.750 89.424 C 94.418 90.194, 93.935 88.960, 96.574 83.857 C 97.439 82.184, 97.994 80.661, 97.807 80.474 C 97.620 80.286, 95.490 81.775, 93.075 83.781 M 131 81.606 C 117.668 85.181, 102.503 95.332, 94.359 106.133 C 87.613 115.081, 82.218 127.140, 80.438 137.250 C 79.859 140.536, 80.021 141, 81.745 141 C 83.346 141, 84.018 139.742, 85.350 134.250 C 91.285 109.783, 111.033 90.271, 135.250 84.946 C 139.710 83.965, 141 83.269, 141 81.841 C 141 79.599, 138.688 79.545, 131 81.606 M 158 81.727 C 158 83.292, 159.148 83.937, 163.750 84.962 C 188.082 90.378, 208.259 110.187, 213.619 133.922 C 214.909 139.635, 215.582 141, 217.109 141 C 219.373 141, 219.402 140.331, 217.487 132.206 C 213.995 117.397, 203.236 101.673, 190.191 92.316 C 182.486 86.788, 170.539 81.635, 162.750 80.478 C 158.463 79.842, 158 79.963, 158 81.727 M 203.972 84.946 C 206.170 89.254, 205.536 90.424, 201.546 89.422 C 198.005 88.534, 198.334 89.345, 203.407 94.021 C 205.830 96.255, 209.517 100.556, 211.598 103.578 C 214.724 108.116, 220.217 113, 222.197 113 C 222.450 113, 222.755 110.597, 222.874 107.659 C 223.073 102.740, 222.739 101.851, 218.642 96.409 C 213.712 89.859, 204.749 81, 203.052 81 C 202.417 81, 202.803 82.654, 203.972 84.946 M 136 87.555 C 109.717 93.200, 89.171 116.866, 86.562 144.500 C 83.810 173.663, 105.125 203.028, 134.460 210.485 C 142.105 212.428, 156.895 212.428, 164.540 210.485 C 181.990 206.049, 197.926 193.143, 205.886 177 C 211.040 166.546, 213.409 154.795, 212.438 144.500 C 208.818 106.155, 173.143 79.578, 136 87.555 M 207.500 92 C 208.495 93.100, 209.535 94, 209.810 94 C 210.085 94, 209.495 93.100, 208.500 92 C 207.505 90.900, 206.465 90, 206.190 90 C 205.915 90, 206.505 90.900, 207.500 92 M 143 91.897 C 141.577 92.295, 144.376 92.595, 149.500 92.595 C 154.624 92.595, 157.423 92.295, 156 91.897 C 154.625 91.513, 151.700 91.199, 149.500 91.199 C 147.300 91.199, 144.375 91.513, 143 91.897 M 137 93 C 136.175 93.533, 135.950 93.969, 136.500 93.969 C 137.050 93.969, 138.175 93.533, 139 93 C 139.825 92.467, 140.050 92.031, 139.500 92.031 C 138.950 92.031, 137.825 92.467, 137 93 M 160 93 C 160.825 93.533, 161.950 93.969, 162.500 93.969 C 163.050 93.969, 162.825 93.533, 162 93 C 161.175 92.467, 160.050 92.031, 159.500 92.031 C 158.950 92.031, 159.175 92.467, 160 93 M 142.500 98.426 C 141.950 98.645, 140.375 99.070, 139 99.369 L 136.500 99.912 136.768 149.344 L 137.037 198.776 139.268 199.374 C 143.495 200.508, 159.550 200.049, 161.334 198.745 C 162.859 197.630, 163.020 195.596, 162.775 180.495 L 162.500 163.500 158.250 163.193 L 154 162.885 154 177.500 L 154 192.115 149.750 191.807 L 145.500 191.500 145.500 172.500 L 145.500 153.500 154 153 L 162.500 152.500 162.797 148.500 L 163.094 144.500 154.297 144.500 L 145.500 144.500 145.228 125.750 L 144.956 107 149.451 107 L 153.947 107 154.223 121.750 L 154.500 136.500 158.500 136.500 L 162.500 136.500 162.772 118.891 C 163 104.188, 162.796 101.076, 161.538 100.031 C 160.120 98.855, 144.685 97.553, 142.500 98.426 M 126.500 103.685 C 124.850 104.568, 123.169 105.788, 122.765 106.395 C 122.361 107.003, 122.024 124.107, 122.015 144.405 L 122 181.310 119.854 179.405 C 118.673 178.357, 116.423 175.745, 114.854 173.600 L 112 169.700 112 142.850 C 112 128.082, 111.646 116, 111.214 116 C 110.781 116, 108.756 118.538, 106.714 121.639 L 103 127.279 103 148.984 L 103 170.690 106.820 176.595 C 111.344 183.589, 118.670 190.416, 125.831 194.312 L 131 197.125 131 149.562 C 131 123.403, 130.662 102.018, 130.250 102.040 C 129.838 102.062, 128.150 102.802, 126.500 103.685 M 169.627 102.707 C 168.548 103.786, 168.900 194.820, 169.986 195.491 C 171.605 196.492, 180.112 190.961, 186.065 185.037 C 191.530 179.599, 199.605 165.788, 198.430 163.887 C 198.129 163.399, 196.198 163, 194.140 163 C 190.669 163, 190.232 163.342, 188.100 167.732 C 185.520 173.042, 180.311 180, 178.916 180 C 178.407 180, 178 174.021, 178 166.533 L 178 153.066 189.250 152.783 L 200.500 152.500 200.810 148.750 L 201.121 145 189.560 145 L 178 145 178 131.500 C 178 123.992, 178.407 118, 178.916 118 C 180.272 118, 185.348 124.728, 188.724 131 C 191.241 135.677, 192.158 136.547, 194.849 136.814 C 196.916 137.019, 198.207 136.625, 198.569 135.680 C 199.403 133.508, 193.852 122.159, 189.264 116.655 C 183.754 110.045, 171.204 101.130, 169.627 102.707 M 71.836 112.522 C 67.663 121.661, 64.702 132.059, 65.603 134.409 C 65.958 135.334, 65.698 136, 64.981 136 C 64.041 136, 63.851 139.430, 64.183 150.460 C 64.559 162.966, 64.881 165.220, 66.559 167.132 C 67.627 168.349, 67.919 169.004, 67.210 168.588 C 63.279 166.286, 74.896 193.669, 78.915 196.179 C 79.952 196.827, 80.581 197.929, 80.312 198.629 C 79.648 200.359, 98.200 218.761, 101.423 219.570 C 102.840 219.926, 104 220.612, 104 221.096 C 104 223.511, 127.109 232.961, 133.218 233.045 C 135.023 233.070, 137.850 233.682, 139.500 234.405 L 142.500 235.719 138.750 237.545 C 136.688 238.549, 135 239.698, 135 240.097 C 135 240.497, 136.796 241.128, 138.992 241.499 C 142.143 242.031, 143.723 241.716, 146.492 240.005 L 150 237.837 153.508 240.005 C 156.277 241.716, 157.857 242.031, 161.008 241.499 C 163.204 241.128, 165 240.497, 165 240.097 C 165 239.698, 163.313 238.549, 161.250 237.545 L 157.500 235.719 160.500 234.405 C 162.150 233.682, 164.850 233.067, 166.500 233.040 C 168.150 233.012, 171.300 232.500, 173.500 231.902 C 179.207 230.352, 197.037 221.869, 196.480 220.968 C 196.224 220.553, 197.158 219.926, 198.557 219.575 C 201.851 218.748, 220.383 200.441, 219.708 198.681 C 219.428 197.953, 220.049 196.826, 221.088 196.177 C 223.240 194.833, 229.371 183.135, 232.139 175.093 C 234.330 168.728, 234.434 167.628, 232.750 168.613 C 232.063 169.015, 232.373 168.349, 233.441 167.132 C 235.119 165.220, 235.441 162.966, 235.817 150.460 C 236.141 139.682, 235.948 136, 235.059 136 C 234.370 136, 234.104 135.248, 234.430 134.221 C 235.268 131.581, 231.437 118.794, 227.525 111.174 L 224.098 104.500 224.049 109.083 C 224.022 111.604, 223.713 113.953, 223.363 114.304 C 223.012 114.654, 221.437 114.024, 219.863 112.902 C 216.488 110.500, 216.372 110.849, 218.899 115.802 C 219.943 117.849, 221.770 122.894, 222.959 127.012 C 224.147 131.130, 225.612 135.400, 226.213 136.500 C 226.814 137.600, 227.946 139.625, 228.729 141 C 230.149 143.495, 230.149 143.495, 228.454 141.250 C 227.520 140.012, 226.473 139.001, 226.128 139.003 C 225.783 139.005, 225.500 146.277, 225.500 155.163 C 225.500 164.049, 225.355 170.572, 225.177 169.659 C 224.633 166.871, 223.259 167.807, 222.579 171.429 C 222.226 173.314, 219.855 179.052, 217.312 184.179 C 213.271 192.324, 211.296 194.883, 201.650 204.469 C 195.579 210.501, 190.987 214.830, 191.445 214.089 C 192.405 212.536, 192.251 212.590, 185.412 216.191 C 182.613 217.664, 177.438 219.838, 173.912 221.021 C 170.385 222.204, 166.824 223.777, 165.997 224.518 C 163.121 227.092, 153.478 230.980, 150 230.968 C 146.310 230.955, 139.693 228.342, 135.137 225.098 C 133.643 224.033, 129.552 222.197, 126.048 221.016 C 122.544 219.836, 117.387 217.664, 114.588 216.191 C 107.809 212.621, 107.601 212.546, 108.486 213.978 C 108.907 214.659, 104.315 210.329, 98.283 204.358 C 88.687 194.858, 86.736 192.334, 82.689 184.179 C 80.145 179.052, 77.774 173.314, 77.421 171.429 C 76.741 167.807, 75.367 166.871, 74.823 169.659 C 74.645 170.572, 74.500 164.049, 74.500 155.163 C 74.500 146.277, 74.217 139.005, 73.872 139.003 C 73.527 139.001, 72.493 140.012, 71.576 141.250 C 69.483 144.072, 70.759 141.379, 73.115 138 C 74.074 136.625, 75.535 132.768, 76.363 129.429 C 77.190 126.090, 79.022 120.746, 80.433 117.555 C 81.845 114.363, 83 111.551, 83 111.307 C 83 111.063, 81.648 111.826, 79.996 113.003 C 76.606 115.417, 76.251 115.038, 75.785 108.500 L 75.500 104.500 71.836 112.522 M 93.667 133.667 C 93.300 134.033, 93 134.798, 93 135.367 C 93 135.993, 93.466 135.934, 94.183 135.217 C 94.834 134.566, 95.134 133.801, 94.850 133.517 C 94.566 133.232, 94.033 133.300, 93.667 133.667 M 92.624 138.539 C 91.659 141.053, 91.943 141.702, 93.122 139.675 C 93.706 138.671, 93.973 137.639, 93.715 137.382 C 93.458 137.124, 92.966 137.645, 92.624 138.539 M 205.766 144.297 C 206.255 155.118, 206.713 156.473, 206.849 147.500 C 206.915 143.100, 206.625 138.959, 206.205 138.297 C 205.784 137.635, 205.586 140.335, 205.766 144.297 M 92.336 149 C 92.336 153.125, 92.513 154.813, 92.728 152.750 C 92.944 150.688, 92.944 147.313, 92.728 145.250 C 92.513 143.188, 92.336 144.875, 92.336 149 M 231.195 148.500 C 231.215 150.150, 231.439 150.704, 231.693 149.731 C 231.947 148.758, 231.930 147.408, 231.656 146.731 C 231.382 146.054, 231.175 146.850, 231.195 148.500 M 206.116 157.168 C 206.052 158.086, 205.741 159.661, 205.424 160.668 C 204.879 162.404, 204.909 162.407, 205.992 160.719 C 206.620 159.739, 206.931 158.164, 206.683 157.219 C 206.277 155.670, 206.221 155.665, 206.116 157.168 M 69.158 159 C 69.158 160.375, 69.385 160.938, 69.662 160.250 C 69.940 159.563, 69.940 158.438, 69.662 157.750 C 69.385 157.063, 69.158 157.625, 69.158 159 M 80 158.887 C 80 162.987, 84.769 176.898, 88.443 183.513 C 93.078 191.857, 105.911 204.982, 114.165 209.821 C 120.028 213.257, 130.660 217.205, 137.327 218.421 C 140.907 219.074, 141.134 218.972, 140.827 216.834 C 140.569 215.033, 139.652 214.403, 136.500 213.864 C 134.300 213.488, 129.487 212.044, 125.803 210.655 C 104.902 202.773, 89.955 185.241, 84.959 162.750 C 83.969 158.295, 83.267 157, 81.841 157 C 80.704 157, 80 157.721, 80 158.887 M 92.031 157.500 C 92.031 158.050, 92.467 159.175, 93 160 C 93.533 160.825, 93.969 161.050, 93.969 160.500 C 93.969 159.950, 93.533 158.825, 93 158 C 92.467 157.175, 92.031 156.950, 92.031 157.500 M 214.220 162.250 C 210.779 179.351, 199.965 195.290, 185.544 204.515 C 179.317 208.499, 168.705 212.804, 162.500 213.864 C 159.325 214.407, 158.431 215.027, 158.168 216.872 C 157.862 219.010, 158.101 219.142, 161.168 218.532 C 176.310 215.516, 187.764 209.412, 198.588 198.588 C 209.573 187.603, 216.592 174.574, 218.547 161.538 C 219.159 157.456, 219.029 157, 217.252 157 C 215.669 157, 215.066 158.045, 214.220 162.250 M 70.110 171.500 C 70.996 172.600, 72.219 174.400, 72.830 175.500 C 73.848 177.335, 73.942 177.259, 73.970 174.583 C 73.986 172.979, 73.699 171.968, 73.331 172.336 C 72.963 172.703, 71.726 172.216, 70.581 171.252 C 68.550 169.542, 68.539 169.548, 70.110 171.500 M 228.250 171.360 C 226.792 172.082, 226.011 173.359, 226.030 174.987 C 226.059 177.366, 226.120 177.393, 227.170 175.500 C 227.781 174.400, 228.962 172.713, 229.795 171.750 C 231.484 169.799, 231.429 169.786, 228.250 171.360 M 224.162 180.543 C 222.487 184.220, 222.807 185.005, 224.618 181.662 C 225.464 180.100, 225.969 178.636, 225.741 178.407 C 225.512 178.179, 224.802 179.140, 224.162 180.543 M 75.090 180.500 C 75.090 181.050, 76.175 183.525, 77.500 186 C 78.825 188.475, 79.910 190.050, 79.910 189.500 C 79.910 188.950, 78.825 186.475, 77.500 184 C 76.175 181.525, 75.090 179.950, 75.090 180.500 M 220.500 188 C 219.647 189.650, 219.174 191, 219.449 191 C 219.724 191, 220.647 189.650, 221.500 188 C 222.353 186.350, 222.826 185, 222.551 185 C 222.276 185, 221.353 186.350, 220.500 188 M 112 192.882 C 112 193.432, 112.450 194.160, 113 194.500 C 113.550 194.840, 114 194.668, 114 194.118 C 114 193.568, 113.550 192.840, 113 192.500 C 112.450 192.160, 112 192.332, 112 192.882 M 90.086 203.618 C 91.414 205.333, 92.701 206.557, 92.947 206.338 C 93.193 206.119, 92.106 204.716, 90.533 203.220 L 87.672 200.500 90.086 203.618 M 207 205.754 C 204.525 208.336, 203.594 209.751, 204.930 208.899 C 207.062 207.539, 212.878 200.952, 211.878 201.029 C 211.670 201.045, 209.475 203.171, 207 205.754 M 139.787 206.180 C 140.729 206.554, 145.100 206.859, 149.500 206.859 C 153.900 206.859, 158.271 206.554, 159.213 206.180 C 160.155 205.806, 155.784 205.500, 149.500 205.500 C 143.216 205.500, 138.845 205.806, 139.787 206.180 M 109.637 217.414 C 110.122 218.735, 109.981 219.106, 109.181 218.612 C 108.470 218.172, 108.217 218.403, 108.526 219.208 C 108.803 219.930, 110.486 221.011, 112.265 221.612 C 114.044 222.213, 116.400 223.025, 117.500 223.416 C 118.600 223.807, 118.150 223.383, 116.500 222.473 C 114.850 221.563, 112.473 219.622, 111.217 218.159 C 109.589 216.262, 109.136 216.049, 109.637 217.414 M 188.734 218.251 C 188.386 219.158, 186.391 220.849, 184.300 222.009 C 182.210 223.169, 181.400 223.800, 182.500 223.411 C 183.600 223.022, 185.956 222.213, 187.735 221.612 C 189.514 221.011, 191.197 219.930, 191.474 219.208 C 191.751 218.486, 191.571 218.147, 191.074 218.454 C 190.577 218.761, 189.990 218.470, 189.769 217.807 C 189.511 217.033, 189.140 217.192, 188.734 218.251 M 121 225 C 121.825 225.533, 122.950 225.969, 123.500 225.969 C 124.050 225.969, 123.825 225.533, 123 225 C 122.175 224.467, 121.050 224.031, 120.500 224.031 C 119.950 224.031, 120.175 224.467, 121 225" stroke="none" fill="#fbfbfb" fill-rule="evenodd"/></svg>