<?xml version="1.0" encoding="UTF-8"?>
<svg version="1.1" xmlns="http://www.w3.org/2000/svg" width="100" height="69">
<path d="M0 0 C0.72900513 -0.0071553 1.45801025 -0.01431061 2.20910645 -0.02168274 C4.61693198 -0.03857732 7.02289648 -0.01915754 9.43066406 0.00219727 C11.10972243 0.00136827 12.78878071 -0.00109229 14.46783447 -0.00511169 C17.98857023 -0.00797066 21.50867022 0.00673409 25.02929688 0.03417969 C29.5262209 0.06815816 34.02200037 0.0622805 38.51897812 0.04351711 C41.98847861 0.03290584 45.45771655 0.04192394 48.92719269 0.05690193 C50.58406035 0.0620611 52.2409557 0.06162962 53.89781952 0.05535698 C69.81243035 0.01774294 69.81243035 0.01774294 76.69628906 4.63110352 C77.58316406 5.18797852 78.47003906 5.74485352 79.38378906 6.31860352 C85.23462008 12.16943454 87.75223852 19.1494942 88.00878906 27.31860352 C87.89851159 34.7292494 85.53614229 41.02278104 80.50878906 46.50610352 C75.98761623 50.61891235 70.76214165 53.38082984 64.63378906 53.88110352 C63.99441406 53.79860352 63.35503906 53.71610352 62.69628906 53.63110352 C62.41785156 55.17797852 62.41785156 55.17797852 62.13378906 56.75610352 C60.81824137 61.48055217 57.5941746 63.89155188 53.69628906 66.63110352 C51.20797331 67.87526139 49.49929452 67.77818323 46.71508789 67.80810547 C45.67673294 67.8209407 44.63837799 67.83377594 43.56855774 67.84700012 C42.44152939 67.85438705 41.31450104 67.86177399 40.15332031 67.86938477 C38.99636154 67.87745651 37.83940277 67.88552826 36.64738464 67.8938446 C34.19356794 67.90769595 31.73973189 67.91841339 29.28588867 67.92626953 C25.54145471 67.94345361 21.79791002 67.98732863 18.05371094 68.03149414 C15.67025389 68.04162338 13.28678933 68.05013876 10.90332031 68.05688477 C9.78641312 68.07439285 8.66950592 68.09190094 7.51875305 68.10993958 C1.05120684 68.0919897 -3.18123328 67.74439449 -8.30371094 63.63110352 C-12.33209969 58.3311339 -11.75446528 52.22224109 -11.73730469 45.84594727 C-11.74254654 44.71210098 -11.74778839 43.5782547 -11.75318909 42.41004944 C-11.75959863 40.01881732 -11.75828618 37.62755362 -11.74975586 35.23632812 C-11.74123198 31.57763708 -11.77004705 27.9205004 -11.80175781 24.26196289 C-11.8033696 21.93579148 -11.80279272 19.60961731 -11.79980469 17.28344727 C-11.81103867 16.1906395 -11.82227264 15.09783173 -11.83384705 13.97190857 C-11.82446609 12.95057327 -11.81508514 11.92923798 -11.80541992 10.87695312 C-11.80517067 9.53509193 -11.80517067 9.53509193 -11.80491638 8.16612244 C-10.42585708 1.1910557 -6.5641379 0.00479314 0 0 Z M63.69628906 24.63110352 C63.69628906 26.28110352 63.69628906 27.93110352 63.69628906 29.63110352 C64.02628906 29.63110352 64.35628906 29.63110352 64.69628906 29.63110352 C64.69628906 27.98110352 64.69628906 26.33110352 64.69628906 24.63110352 C64.36628906 24.63110352 64.03628906 24.63110352 63.69628906 24.63110352 Z " fill="#FBFAFA" transform="translate(12.3037109375,0.368896484375)"/>
<path d="M0 0 C0.72900513 -0.0071553 1.45801025 -0.01431061 2.20910645 -0.02168274 C4.61693198 -0.03857732 7.02289648 -0.01915754 9.43066406 0.00219727 C11.10972243 0.00136827 12.78878071 -0.00109229 14.46783447 -0.00511169 C17.98857023 -0.00797066 21.50867022 0.00673409 25.02929688 0.03417969 C29.5262209 0.06815816 34.02200037 0.0622805 38.51897812 0.04351711 C41.98847861 0.03290584 45.45771655 0.04192394 48.92719269 0.05690193 C50.58406035 0.0620611 52.2409557 0.06162962 53.89781952 0.05535698 C69.81243035 0.01774294 69.81243035 0.01774294 76.69628906 4.63110352 C77.58316406 5.18797852 78.47003906 5.74485352 79.38378906 6.31860352 C85.23462008 12.16943454 87.75223852 19.1494942 88.00878906 27.31860352 C87.89851159 34.7292494 85.53614229 41.02278104 80.50878906 46.50610352 C75.98761623 50.61891235 70.76214165 53.38082984 64.63378906 53.88110352 C63.99441406 53.79860352 63.35503906 53.71610352 62.69628906 53.63110352 C62.41785156 55.17797852 62.41785156 55.17797852 62.13378906 56.75610352 C60.81824137 61.48055217 57.5941746 63.89155188 53.69628906 66.63110352 C51.20797331 67.87526139 49.49929452 67.77818323 46.71508789 67.80810547 C45.67673294 67.8209407 44.63837799 67.83377594 43.56855774 67.84700012 C42.44152939 67.85438705 41.31450104 67.86177399 40.15332031 67.86938477 C38.99636154 67.87745651 37.83940277 67.88552826 36.64738464 67.8938446 C34.19356794 67.90769595 31.73973189 67.91841339 29.28588867 67.92626953 C25.54145471 67.94345361 21.79791002 67.98732863 18.05371094 68.03149414 C15.67025389 68.04162338 13.28678933 68.05013876 10.90332031 68.05688477 C9.78641312 68.07439285 8.66950592 68.09190094 7.51875305 68.10993958 C1.05120684 68.0919897 -3.18123328 67.74439449 -8.30371094 63.63110352 C-12.33209969 58.3311339 -11.75446528 52.22224109 -11.73730469 45.84594727 C-11.74254654 44.71210098 -11.74778839 43.5782547 -11.75318909 42.41004944 C-11.75959863 40.01881732 -11.75828618 37.62755362 -11.74975586 35.23632812 C-11.74123198 31.57763708 -11.77004705 27.9205004 -11.80175781 24.26196289 C-11.8033696 21.93579148 -11.80279272 19.60961731 -11.79980469 17.28344727 C-11.81103867 16.1906395 -11.82227264 15.09783173 -11.83384705 13.97190857 C-11.82446609 12.95057327 -11.81508514 11.92923798 -11.80541992 10.87695312 C-11.80517067 9.53509193 -11.80517067 9.53509193 -11.80491638 8.16612244 C-10.42585708 1.1910557 -6.5641379 0.00479314 0 0 Z M-3.30371094 8.63110352 C-3.40510658 15.25125044 -3.4751743 21.87119724 -3.5234375 28.49194336 C-3.5435565 30.74429813 -3.57085501 32.99660065 -3.60546875 35.2487793 C-3.65397303 38.48572682 -3.67667698 41.72198398 -3.69433594 44.95922852 C-3.71498108 45.966651 -3.73562622 46.97407349 -3.75689697 48.01202393 C-3.75814531 51.89876282 -3.74056143 54.77174117 -1.96484375 58.26489258 C2.41736813 60.51469604 6.81252705 60.2001829 11.66503906 60.16235352 C13.27372864 60.16809387 13.27372864 60.16809387 14.91491699 60.1739502 C17.18108052 60.17667068 19.44727537 60.16930004 21.71337891 60.15258789 C25.18365434 60.13118145 28.65185933 60.15238626 32.12207031 60.17797852 C34.3238978 60.17533527 36.525724 60.17021035 38.72753906 60.16235352 C39.76616089 60.17045044 40.80478271 60.17854736 41.87487793 60.18688965 C47.47630071 60.20619962 47.47630071 60.20619962 52.33007812 57.73168945 C53.7380745 55.56685728 54.44145225 53.9052876 54.94628906 51.38110352 C55.19378906 50.14360352 55.44128906 48.90610352 55.69628906 47.63110352 C56.98212891 47.39327148 56.98212891 47.39327148 58.29394531 47.15063477 C69.08351401 44.96876228 69.08351401 44.96876228 77.00097656 37.84594727 C79.8351545 32.93011449 80.66265692 28.22432356 79.69628906 22.63110352 C77.64527278 16.43418266 74.47543893 13.01159513 68.97003174 9.54373169 C65.84377292 8.28892308 63.18219459 8.39194558 59.81640625 8.40405273 C59.1330722 8.40376068 58.44973816 8.40346863 57.74569702 8.40316772 C55.494722 8.40455727 53.24408102 8.42010049 50.99316406 8.43579102 C49.42946554 8.43952249 47.86576468 8.44236883 46.30206299 8.44436646 C42.19207268 8.45199238 38.08222436 8.47163188 33.97229004 8.49377441 C29.77614258 8.5142553 25.57997212 8.52337296 21.38378906 8.53344727 C13.15455733 8.5548788 4.92544088 8.58900212 -3.30371094 8.63110352 Z " fill="#121212" transform="translate(12.3037109375,0.368896484375)"/>
<path d="M0 0 C0.72900513 -0.0071553 1.45801025 -0.01431061 2.20910645 -0.02168274 C4.61693198 -0.03857732 7.02289648 -0.01915754 9.43066406 0.00219727 C11.10972243 0.00136827 12.78878071 -0.00109229 14.46783447 -0.00511169 C17.98857023 -0.00797066 21.50867022 0.00673409 25.02929688 0.03417969 C29.5262209 0.06815816 34.02200037 0.0622805 38.51897812 0.04351711 C41.98847861 0.03290584 45.45771655 0.04192394 48.92719269 0.05690193 C50.58406035 0.0620611 52.2409557 0.06162962 53.89781952 0.05535698 C69.81243035 0.01774294 69.81243035 0.01774294 76.69628906 4.63110352 C77.58316406 5.18797852 78.47003906 5.74485352 79.38378906 6.31860352 C85.23462008 12.16943454 87.75223852 19.1494942 88.00878906 27.31860352 C87.89851159 34.7292494 85.53614229 41.02278104 80.50878906 46.50610352 C75.98761623 50.61891235 70.76214165 53.38082984 64.63378906 53.88110352 C63.99441406 53.79860352 63.35503906 53.71610352 62.69628906 53.63110352 C62.41785156 55.17797852 62.41785156 55.17797852 62.13378906 56.75610352 C60.81824137 61.48055217 57.5941746 63.89155188 53.69628906 66.63110352 C51.20797331 67.87526139 49.49929452 67.77818323 46.71508789 67.80810547 C45.67673294 67.8209407 44.63837799 67.83377594 43.56855774 67.84700012 C42.44152939 67.85438705 41.31450104 67.86177399 40.15332031 67.86938477 C38.99636154 67.87745651 37.83940277 67.88552826 36.64738464 67.8938446 C34.19356794 67.90769595 31.73973189 67.91841339 29.28588867 67.92626953 C25.54145471 67.94345361 21.79791002 67.98732863 18.05371094 68.03149414 C15.67025389 68.04162338 13.28678933 68.05013876 10.90332031 68.05688477 C9.78641312 68.07439285 8.66950592 68.09190094 7.51875305 68.10993958 C1.05120684 68.0919897 -3.18123328 67.74439449 -8.30371094 63.63110352 C-12.33209969 58.3311339 -11.75446528 52.22224109 -11.73730469 45.84594727 C-11.74254654 44.71210098 -11.74778839 43.5782547 -11.75318909 42.41004944 C-11.75959863 40.01881732 -11.75828618 37.62755362 -11.74975586 35.23632812 C-11.74123198 31.57763708 -11.77004705 27.9205004 -11.80175781 24.26196289 C-11.8033696 21.93579148 -11.80279272 19.60961731 -11.79980469 17.28344727 C-11.81103867 16.1906395 -11.82227264 15.09783173 -11.83384705 13.97190857 C-11.82446609 12.95057327 -11.81508514 11.92923798 -11.80541992 10.87695312 C-11.80517067 9.53509193 -11.80517067 9.53509193 -11.80491638 8.16612244 C-10.42585708 1.1910557 -6.5641379 0.00479314 0 0 Z M-6.18569946 4.85415649 C-7.65309137 7.18640239 -7.68431762 8.73144091 -7.69189453 11.48217773 C-7.70135101 12.46685028 -7.7108075 13.45152283 -7.72055054 14.46603394 C-7.71447784 15.52855377 -7.70840515 16.59107361 -7.70214844 17.68579102 C-7.70501862 18.77949005 -7.70788879 19.87318909 -7.71084595 21.00003052 C-7.71288863 23.31504839 -7.70734459 25.63008344 -7.69482422 27.94506836 C-7.67880489 31.48533905 -7.69465088 35.02446268 -7.71386719 38.56469727 C-7.71188419 40.8133977 -7.70803934 43.06209742 -7.70214844 45.31079102 C-7.70822113 46.36926239 -7.71429382 47.42773376 -7.72055054 48.51828003 C-7.76708382 55.6268577 -7.76708382 55.6268577 -4.30371094 61.63110352 C-1.23012472 63.5154095 1.14127293 63.8975663 4.72094727 63.95336914 C5.71910965 63.97258423 6.71727203 63.99179932 7.74568176 64.01159668 C8.81863998 64.02009644 9.89159821 64.02859619 10.99707031 64.03735352 C12.1068071 64.04875366 13.21654388 64.06015381 14.35990906 64.07189941 C16.70759272 64.09078471 19.05532922 64.10386157 21.40307617 64.11157227 C24.98548388 64.13097728 28.56559221 64.19302596 32.14746094 64.25610352 C34.43065046 64.26916525 36.71385637 64.27966554 38.99707031 64.28735352 C40.59739861 64.32439392 40.59739861 64.32439392 42.23005676 64.36218262 C48.38683992 64.32550781 51.96084254 63.59173983 56.48478699 59.2989502 C58.45994526 56.57979582 58.63069432 53.91084042 58.69628906 50.63110352 C59.39753906 50.54473633 60.09878906 50.45836914 60.82128906 50.36938477 C68.22701515 49.27261283 74.43480096 47.72219707 79.26269531 41.66625977 C83.07900104 35.82763818 84.37768002 30.65562488 83.69628906 23.63110352 C82.45265998 17.84382173 80.4330319 12.42722394 75.69628906 8.63110352 C67.04501356 3.19424737 58.52761454 2.91842947 48.63378906 3.03735352 C47.10970148 3.03906826 45.58561096 3.03899525 44.06152344 3.03723145 C40.89114599 3.03887333 37.72148549 3.05737541 34.55126953 3.08911133 C30.48799084 3.12905886 26.42563606 3.13311848 22.36219788 3.1256485 C19.22576423 3.12258296 16.08953856 3.13467983 12.95315552 3.15177917 C11.4540436 3.15880313 9.95490816 3.16193444 8.45578003 3.16108704 C6.36884603 3.16288242 4.28302989 3.18423032 2.19628906 3.21118164 C0.41738281 3.22381042 0.41738281 3.22381042 -1.39746094 3.23669434 C-4.26452707 3.41504742 -4.26452707 3.41504742 -6.18569946 4.85415649 Z " fill="#F0F0F0" transform="translate(12.3037109375,0.368896484375)"/>
<path d="M0 0 C0.886875 0.53625 1.77375 1.0725 2.6875 1.625 C3.450625 2.07875 4.21375 2.5325 5 3 C7.21734114 2.3498008 7.21734114 2.3498008 9 1 C12.02437339 -0.5121867 14.66241534 -0.17263369 18 0 C21.38031589 1.18767855 21.93216817 1.89825225 24 5 C24.45145909 9.01560984 23.8772036 12.63343652 21.68359375 16.05078125 C19.87644918 18.14304376 17.98220362 20.07255339 16 22 C15.18660156 22.825 14.37320313 23.65 13.53515625 24.5 C11.37400897 26.68504622 9.19537343 28.84943011 7 31 C4.1376052 29.69947546 2.0609702 28.31677165 -0.1640625 26.1015625 C-1.01097656 25.25851563 -1.01097656 25.25851563 -1.875 24.3984375 C-2.4525 23.81320313 -3.03 23.22796875 -3.625 22.625 C-4.50285156 21.75875 -4.50285156 21.75875 -5.3984375 20.875 C-5.96046875 20.31039062 -6.5225 19.74578125 -7.1015625 19.1640625 C-7.61025879 18.65311035 -8.11895508 18.1421582 -8.64306641 17.61572266 C-11.10810264 14.68056436 -11.9523777 12.37417521 -12.4375 8.5625 C-12 5 -12 5 -9.9375 2.0625 C-6.25315134 -0.5243831 -4.42058395 -0.63151199 0 0 Z " fill="#FF5252" transform="translate(32,20)"/>
<path d="M0 0 C9.39285714 0 9.39285714 0 14 3 C17.42098422 6.76308264 17.50797209 9.59975815 17.35546875 14.5234375 C16.83333446 18.16116429 15.43397635 20.29558184 13 23 C9 25 9 25 0 25 C0 16.75 0 8.5 0 0 Z M8 10 C8 11.65 8 13.3 8 15 C8.33 15 8.66 15 9 15 C9 13.35 9 11.7 9 10 C8.67 10 8.34 10 8 10 Z " fill="#080808" transform="translate(68,15)"/>
<path d="M0 0 C6 1 6 1 7.875 2.0625 C9.73224437 5.26108753 9.74093733 8.47368718 9 12 C6.75 15 6.75 15 4 17 C2.68 17 1.36 17 0 17 C0 11.39 0 5.78 0 0 Z M4 6 C4 7.65 4 9.3 4 11 C4.33 11 4.66 11 5 11 C5 9.35 5 7.7 5 6 C4.67 6 4.34 6 4 6 Z " fill="#F2F2F2" transform="translate(72,19)"/>
</svg>
