<?xml version="1.0" encoding="UTF-8"?>
<svg version="1.1" xmlns="http://www.w3.org/2000/svg" width="454" height="540">
<path d="M0 0 C0.99 0.33 1.98 0.66 3 1 C3.19335938 2.02480469 3.38671875 3.04960938 3.5859375 4.10546875 C3.84869863 5.46619601 4.11173398 6.82687033 4.375 8.1875 C4.50132812 8.86103516 4.62765625 9.53457031 4.7578125 10.22851562 C5.31224568 13.06998565 5.90282619 15.75725905 6.98046875 18.44921875 C8.43081288 22.07785752 9.1387157 25.80751678 9.9375 29.625 C10.97974719 34.57460186 12.10995017 39.45535701 13.5 44.3203125 C15.14195617 50.23549193 16.1325205 56.18791144 17.0625 62.25 C19.56116616 78.3859646 25.03077799 91.36873023 32.74267578 105.65869141 C34.87690474 109.63291582 36.96751285 113.62999271 39.0625 117.625 C41.42167898 122.1201678 43.78367573 126.61293074 46.19921875 131.078125 C50.44088779 138.9231247 54.34345164 146.86289238 58 155 C58.48855469 156.03898438 58.97710937 157.07796875 59.48046875 158.1484375 C59.94066406 159.13070312 60.40085937 160.11296875 60.875 161.125 C61.28492188 161.99382812 61.69484375 162.86265625 62.1171875 163.7578125 C63 166 63 166 63 169 C63.66 169 64.32 169 65 169 C65.30292969 169.82242188 65.60585938 170.64484375 65.91796875 171.4921875 C67.96620188 176.94994101 70.04350227 182.26911513 72.75 187.4375 C74.58403144 190.96183001 75.68290628 193.98347957 76 198 C76.66 198 77.32 198 78 198 C78.30292969 198.81082031 78.60585938 199.62164062 78.91796875 200.45703125 C82.13031113 208.94749925 85.68820957 217.18050469 89.61328125 225.36328125 C90.15339844 226.50152344 90.69351562 227.63976562 91.25 228.8125 C91.75015625 229.85019531 92.2503125 230.88789063 92.765625 231.95703125 C94.00083269 235.00205273 94.59182734 237.74919632 95 241 C95.66 241 96.32 241 97 241 C100.15197831 247.72869128 103.22597321 254.47168423 106.125 261.3125 C107.97713047 265.67272381 109.90605937 269.94009903 112.0703125 274.15234375 C121 291.89915966 121 291.89915966 121 298 C121.66 298 122.32 298 123 298 C123.30292969 298.82242187 123.60585938 299.64484375 123.91796875 300.4921875 C126.28417236 306.79721004 128.77787802 312.85531886 131.984375 318.78125 C133.08136173 321.17774409 133.57979923 323.40571697 134 326 C134.66 326 135.32 326 136 326 C136.31453125 326.845625 136.6290625 327.69125 136.953125 328.5625 C137.59507812 330.2640625 137.59507812 330.2640625 138.25 332 C138.66765625 333.11375 139.0853125 334.2275 139.515625 335.375 C140.85973179 338.65745026 142.34241941 341.7738103 143.95166016 344.92919922 C145.7283939 348.43880696 147.39029473 352.0022171 149.0625 355.5625 C149.57006836 356.63661133 149.57006836 356.63661133 150.08789062 357.73242188 C151.06860162 359.81714409 152.03712351 361.90698797 153 364 C153.29350342 364.62874023 153.58700684 365.25748047 153.8894043 365.90527344 C157.85748938 374.69149243 157.10040855 384.46162477 157.1875 393.9375 C157.20063232 394.84967285 157.21376465 395.7618457 157.22729492 396.70166016 C157.2376007 405.26813714 157.2376007 405.26813714 155 409 C152.375 409.8125 152.375 409.8125 150 410 C149.7525 409.38125 149.505 408.7625 149.25 408.125 C147.73970696 405.55750184 146.63908792 405.28184271 144 404 C141.11326133 401.41712856 138.71259506 398.67824602 136.4375 395.5625 C132.62680003 390.3643144 128.38466964 385.55142312 124.171875 380.6796875 C122.08117352 378.26191308 120.00814968 375.83098393 117.953125 373.3828125 C117.46674561 372.80362061 116.98036621 372.22442871 116.47924805 371.62768555 C115.5649001 370.53686513 114.65218049 369.44467677 113.74145508 368.35083008 C111.64777385 365.85750833 109.51693072 363.52899071 107.18359375 361.25390625 C105 359 105 359 105 357 C97.56416388 359.25598221 90.40714532 361.98764171 83.25 365 C82.45875732 365.33193359 81.66751465 365.66386719 80.85229492 366.00585938 C78.55778644 366.98206233 76.27635619 367.98222995 74 369 C73.23655273 369.33870117 72.47310547 369.67740234 71.68652344 370.02636719 C70.9649707 370.36313477 70.24341797 370.69990234 69.5 371.046875 C68.85546875 371.34432617 68.2109375 371.64177734 67.546875 371.94824219 C65.63199237 373.03533074 65.63199237 373.03533074 64.75 376.25 C65.02515602 380.37734029 66.04725853 382.77645624 68.08984375 386.30078125 C69 388 69 388 69 390 C69.99 390.33 70.98 390.66 72 391 C73.46484375 393.0390625 73.46484375 393.0390625 74.9375 395.625 C75.45957031 396.52734375 75.98164063 397.4296875 76.51953125 398.359375 C77.39913491 399.9282723 78.27356164 401.50011957 79.13671875 403.078125 C80.5352803 405.62096418 81.80983007 407.81336628 83.890625 409.85546875 C86.21129709 412.21481871 87.8629673 414.63920578 89.625 417.4375 C90.21539062 418.36433594 90.80578125 419.29117187 91.4140625 420.24609375 C93 423 93 423 94.0234375 425.78515625 C94.50683594 426.88150391 94.50683594 426.88150391 95 428 C95.99 428.33 96.98 428.66 98 429 C99.46484375 431.07421875 99.46484375 431.07421875 100.9375 433.6875 C102.66540337 436.69948118 104.38871369 439.65134028 106.375 442.5 C108 445 108 445 108 447 C108.99 447.33 109.98 447.66 111 448 C117.88780265 457.68172823 117.06197651 470.70673493 116 482 C115.45775178 485.05049382 114.76455259 487.99398799 114 491 C109.67689794 490.49688036 106.98010091 489.66644874 103.5 487.0625 C102.65695312 486.44117188 101.81390625 485.81984375 100.9453125 485.1796875 C99.97335937 484.46039062 99.00140625 483.74109375 98 483 C96.74994466 482.12395586 95.49718854 481.25175674 94.2421875 480.3828125 C93.60216797 479.93671631 92.96214844 479.49062012 92.30273438 479.03100586 C91.02802265 478.14261444 89.75071083 477.25794103 88.47070312 476.37719727 C86.94420473 475.30115144 85.46679619 474.15610593 84 473 C84 472.34 84 471.68 84 471 C83.41863281 470.89300781 82.83726562 470.78601563 82.23828125 470.67578125 C79.69877203 469.90905334 78.2476323 468.84483658 76.1875 467.1875 C73.56292071 465.13796898 70.98638335 463.34429854 68.0625 461.75 C65 460 65 460 64 458 C63.05125 457.484375 62.1025 456.96875 61.125 456.4375 C57.56568789 454.49672282 54.60341794 452.10328034 51.5 449.5 C47.4745426 446.12702059 43.59990031 443.49161267 39 441 C36.50444589 438.92037157 36.05897645 438.17692935 35 435 C34.92942206 433.51715749 34.91576879 432.03123713 34.9375 430.546875 C34.94612061 429.63260742 34.95474121 428.71833984 34.96362305 427.77636719 C34.97562744 426.77766602 34.98763184 425.77896484 35 424.75 C35.04398103 415.42025408 34.98101125 406.09577674 34.73754883 396.76916504 C34.68874977 394.80042072 34.65376336 392.83134933 34.61914062 390.86230469 C34.39019099 382.86363695 33.28507026 375.66633808 31 368 C29 361 29 361 28.3515625 357.98046875 C28.11179687 356.89378906 27.87203125 355.80710937 27.625 354.6875 C27.41101563 353.66011719 27.19703125 352.63273437 26.9765625 351.57421875 C26.25433379 348.87075004 26.25433379 348.87075004 23.98828125 347.7890625 C23.00408203 347.39847656 23.00408203 347.39847656 22 347 C20.97388051 345.34928604 19.97691857 343.68029994 19 342 C17.37347684 340.29413425 15.70993434 338.6222454 14 337 C13.34 336.34 12.68 335.68 12 335 C12.50015476 338.83451981 13.12531975 342.54615294 14 346.3125 C15.03731667 351.31584781 15.31574054 356.26630771 15.5625 361.35546875 C15.60568359 362.18832397 15.64886719 363.0211792 15.69335938 363.87927246 C15.79869178 365.91935633 15.89977552 367.95965881 16 370 C10.37680796 370.16778266 4.75347325 370.32832479 -0.87011719 370.48217773 C-2.7829341 370.53552775 -4.69569703 370.59085153 -6.60839844 370.64819336 C-9.35860556 370.73029975 -12.10892907 370.80529246 -14.859375 370.87890625 C-15.71368103 370.90594131 -16.56798706 370.93297638 -17.44818115 370.96083069 C-18.24870911 370.98092697 -19.04923706 371.00102325 -19.87402344 371.02172852 C-20.92659332 371.05170677 -20.92659332 371.05170677 -22.00042725 371.08229065 C-24.12056818 370.99503812 -25.96449986 370.58261316 -28 370 C-28 369.34 -28 368.68 -28 368 C-30.31 368 -32.62 368 -35 368 C-35 368.66 -35 369.32 -35 370 C-35.66 370 -36.32 370 -37 370 C-36.78671164 367.17673561 -36.56934442 364.35387117 -36.34765625 361.53125 C-36.06831483 357.94900899 -35.81252332 354.36537686 -35.55859375 350.78125 C-35.39344843 348.54165049 -35.22808184 346.30206728 -35.0625 344.0625 C-34.98789551 342.97267822 -34.91329102 341.88285645 -34.83642578 340.76000977 C-34.44345168 335.55531295 -34.02683733 330.87628228 -32 326 C-34.94730057 328.18942328 -37.40880223 330.38806411 -39.6875 333.25 C-40.450625 334.1575 -41.21375 335.065 -42 336 C-42.66 336 -43.32 336 -44 336 C-44.3403125 336.804375 -44.3403125 336.804375 -44.6875 337.625 C-47.56484789 342.83162952 -51.82952096 346.82952096 -56 351 C-60.56621797 357.84932696 -59.07337776 369.97383511 -59.0703125 378.08203125 C-59.07037292 378.84248749 -59.07043335 379.60294373 -59.07049561 380.38644409 C-59.04826749 386.77542805 -58.85913996 393.15416267 -58.640625 399.5390625 C-58.57656677 401.5403564 -58.51276656 403.54165858 -58.44921875 405.54296875 C-58.35192306 408.60654824 -58.24822628 411.66925953 -58.12548828 414.73193359 C-58.00679777 417.75067668 -57.91511401 420.76926076 -57.828125 423.7890625 C-57.78560608 424.69749908 -57.74308716 425.60593567 -57.69927979 426.54190063 C-57.55790373 432.54015455 -58.53502439 437.017791 -62 442 C-64.4453125 444.06640625 -64.4453125 444.06640625 -67.125 445.5625 C-71.85840673 448.32154456 -76.28845091 451.28771413 -80.7109375 454.51953125 C-83 456 -83 456 -85.7265625 457.01171875 C-86.47679687 457.33785156 -87.22703125 457.66398437 -88 458 C-88.33 458.99 -88.66 459.98 -89 461 C-91.47270844 462.6837967 -93.92854578 464.23282185 -96.5 465.75 C-101.95973406 469.05891145 -107.14327294 472.44931619 -112.11328125 476.47265625 C-126.48271277 488.10505319 -126.48271277 488.10505319 -133.6875 487.9375 C-136 487 -136 487 -137.1171875 485.09765625 C-140.2362584 474.15330571 -139.37116117 460.11509983 -134.61328125 449.80859375 C-131.78801996 444.89003958 -128.50053818 440.45346246 -125 436 C-123.63782664 434.15170751 -122.28360627 432.29752669 -120.9375 430.4375 C-120.27878906 429.53128906 -119.62007812 428.62507813 -118.94140625 427.69140625 C-112.31141073 418.50012473 -105.80207461 409.22154758 -100.078125 399.43359375 C-99.72234375 398.96050781 -99.3665625 398.48742187 -99 398 C-98.34 398 -97.68 398 -97 398 C-96.7215625 396.824375 -96.7215625 396.824375 -96.4375 395.625 C-94.72547773 391.30772645 -92.30688929 387.98915785 -89.55859375 384.26953125 C-86.79296492 380.24238752 -86.65143072 376.79282757 -87 372 C-87.99 371.34 -88.98 370.68 -90 370 C-90 369.34 -90 368.68 -90 368 C-91.10021484 367.80277344 -91.10021484 367.80277344 -92.22265625 367.6015625 C-100.54665019 365.79861585 -108.11621986 361.50602435 -115.60546875 357.5859375 C-119.0808797 355.96221271 -122.29688267 354.95048247 -126 354 C-126.3403125 354.8353125 -126.3403125 354.8353125 -126.6875 355.6875 C-128.37367031 358.65837149 -130.55387116 360.60822958 -133 363 C-134.72296531 364.91627361 -136.40937979 366.86171914 -138.09765625 368.80859375 C-140.1349319 371.1554349 -142.18884395 373.48660832 -144.25 375.8125 C-145.21679688 376.90498047 -145.21679688 376.90498047 -146.203125 378.01953125 C-147.31829731 379.24864508 -148.45898333 380.45569705 -149.63671875 381.625 C-151.12787901 383.0555615 -151.12787901 383.0555615 -152.5625 385.1875 C-153.036875 385.785625 -153.51125 386.38375 -154 387 C-154.66 387 -155.32 387 -156 387 C-156.28875 387.598125 -156.5775 388.19625 -156.875 388.8125 C-158 391 -158 391 -160 394 C-160.66 394 -161.32 394 -162 394 C-162.33 394.99 -162.66 395.98 -163 397 C-166.44444444 400 -166.44444444 400 -169 400 C-169.185625 400.639375 -169.37125 401.27875 -169.5625 401.9375 C-171 404 -171 404 -174.5625 404.8125 C-176.2640625 404.9053125 -176.2640625 404.9053125 -178 405 C-181.29990934 401.70009066 -180.27473894 391.5525678 -180.3125 387 C-180.3125 371.92981472 -176.06666253 360.1829308 -169.05566406 347.02539062 C-167.30697914 343.67037442 -165.71855188 340.2432194 -164.125 336.8125 C-163.46126246 335.39307717 -162.79719205 333.97380994 -162.1328125 332.5546875 C-161.79024414 331.82217773 -161.44767578 331.08966797 -161.09472656 330.33496094 C-155.76472724 318.96651456 -150.3647629 307.63770081 -144.70507812 296.42944336 C-141.98312366 291.02005197 -139.44172715 285.54084237 -137 280 C-136.34 280 -135.68 280 -135 280 C-134.896875 279.34 -134.79375 278.68 -134.6875 278 C-133.80786436 274.16158991 -132.43030104 270.66903309 -131 267 C-130.34 267 -129.68 267 -129 267 C-128.80664062 266.39671875 -128.61328125 265.7934375 -128.4140625 265.171875 C-128.15367187 264.37265625 -127.89328125 263.5734375 -127.625 262.75 C-127.36976562 261.96109375 -127.11453125 261.1721875 -126.8515625 260.359375 C-126.04826333 258.13372042 -125.10288338 256.09068328 -124 254 C-123.34 254 -122.68 254 -122 254 C-121.896875 253.13375 -121.79375 252.2675 -121.6875 251.375 C-120.95180061 247.7633848 -119.6977577 245.26582558 -118 242 C-111.52485007 229.17891599 -105.26156021 216.28087269 -99.37890625 203.17578125 C-98.93208496 202.18271973 -98.48526367 201.1896582 -98.02490234 200.16650391 C-97.14944201 198.21645518 -96.27849222 196.26437367 -95.41259766 194.31005859 C-95.01218262 193.41754395 -94.61176758 192.5250293 -94.19921875 191.60546875 C-93.84690186 190.81293701 -93.49458496 190.02040527 -93.1315918 189.20385742 C-92 187 -92 187 -90.45166016 184.94677734 C-89.02302695 183.03088074 -88.31681289 181.49887152 -87.57421875 179.24609375 C-86.04196229 174.94165622 -84.01207241 171.05822358 -81.8125 167.0625 C-78.60948389 161.14575361 -75.6206735 155.17625584 -72.8125 149.0625 C-70.24604294 143.48983844 -67.49039218 138.19326069 -64.23046875 132.984375 C-62.63293947 130.40804207 -61.33304768 127.72163902 -60 125 C-55.08632484 115.80050818 -55.08632484 115.80050818 -52.44921875 111.4296875 C-51.13059283 109.21894539 -49.94744824 106.99653262 -48.8125 104.6875 C-48.46832031 103.99011719 -48.12414062 103.29273438 -47.76953125 102.57421875 C-47.51558594 102.05472656 -47.26164063 101.53523438 -47 101 C-46.34 101 -45.68 101 -45 101 C-44.8453125 99.9790625 -44.8453125 99.9790625 -44.6875 98.9375 C-43.85274981 95.37084011 -42.50527246 92.33777806 -41 89 C-40.34 89 -39.68 89 -39 89 C-38.74605469 87.88882813 -38.49210938 86.77765625 -38.23046875 85.6328125 C-35.10939358 72.1045975 -35.10939358 72.1045975 -33.5 67.1875 C-31.630017 61.29143337 -30.58556256 55.20022592 -29.4453125 49.12963867 C-28.58203197 44.60136381 -27.50284463 40.36653282 -26 36 C-25.54489932 34.06433161 -25.09053058 32.12840804 -24.65722656 30.18774414 C-21.38168617 15.80362731 -21.38168617 15.80362731 -17 12 C-14.28829167 11.00626838 -11.8666376 10.91618019 -9 11 C-7.845 10.979375 -6.69 10.95875 -5.5 10.9375 C-4.675 10.958125 -3.85 10.97875 -3 11 C-2.92652344 10.06027344 -2.92652344 10.06027344 -2.8515625 9.1015625 C-2.77679688 8.28429688 -2.70203125 7.46703125 -2.625 6.625 C-2.55539063 5.81289063 -2.48578125 5.00078125 -2.4140625 4.1640625 C-2 2 -2 2 0 0 Z " fill="#17FBFB" transform="translate(241,30)"/>
<path d="M0 0 C1.11568359 -0.01160156 2.23136719 -0.02320313 3.38085938 -0.03515625 C10.43276754 -0.01036923 16.44691253 0.91342953 23.0625 3.375 C23.0625 4.035 23.0625 4.695 23.0625 5.375 C24.00609375 5.48714844 24.00609375 5.48714844 24.96875 5.6015625 C37.74152696 7.56364571 44.61007254 16.56055216 52.0625 26.375 C59.46711845 36.7924288 61.58154664 46.5732048 61.5 59.25 C61.51998047 60.34441406 61.53996094 61.43882812 61.56054688 62.56640625 C61.55535774 71.33603861 60.05347583 79.44607483 55.45092773 87.03076172 C53.86204103 89.35796864 53.86204103 89.35796864 53.6875 92.375 C52.86057754 96.34422783 51.02922108 97.68425297 48.0625 100.375 C47.4025 101.261875 46.7425 102.14875 46.0625 103.0625 C43.83217493 105.64131336 42.16859261 106.14891081 39.0625 107.375 C38.81886719 107.98988281 38.57523437 108.60476563 38.32421875 109.23828125 C36.42169377 112.46020436 33.91178423 113.09406518 30.5 114.5 C29.87391846 114.75934326 29.24783691 115.01868652 28.6027832 115.28588867 C23.80349669 117.21830927 19.13277625 118.42969426 14.0625 119.375 C13.7325 119.705 13.4025 120.035 13.0625 120.375 C8.86058092 120.63048149 4.64625181 120.56023966 0.4375 120.5625 C-0.73941406 120.57474609 -1.91632813 120.58699219 -3.12890625 120.59960938 C-14.3487707 120.61854053 -21.27797098 118.02336867 -30.9375 112.375 C-31.72640625 111.94445312 -32.5153125 111.51390625 -33.328125 111.0703125 C-39.33044619 107.52348634 -42.96303621 102.80838531 -46.89453125 97.1796875 C-48.8193123 94.35285912 -48.8193123 94.35285912 -51.19921875 92.2578125 C-52.9375 90.375 -52.9375 90.375 -52.9375 86.375 C-53.5975 86.375 -54.2575 86.375 -54.9375 86.375 C-57.22321429 77.94642857 -57.22321429 77.94642857 -56.9375 73.375 C-57.5975 73.375 -58.2575 73.375 -58.9375 73.375 C-59.08486747 69.12537572 -59.17225716 64.87642287 -59.25 60.625 C-59.29189453 59.43777344 -59.33378906 58.25054687 -59.37695312 57.02734375 C-59.4954828 48.35097148 -57.74265608 42.12000796 -53.9375 34.375 C-53.38830347 33.00299018 -52.84534486 31.62844265 -52.3125 30.25 C-50.9375 27.375 -50.9375 27.375 -47.9375 25.375 C-46.73299696 22.82316596 -46.73299696 22.82316596 -45.9375 20.375 C-45.2775 20.375 -44.6175 20.375 -43.9375 20.375 C-43.68613281 19.76527344 -43.43476563 19.15554687 -43.17578125 18.52734375 C-41.74762683 16.04496809 -40.60574988 15.3083159 -38.125 13.9375 C-35.30470348 12.29909033 -33.64958148 11.06601427 -31.375 8.625 C-28.29391152 5.78091833 -26.04916058 5.61686239 -21.9375 5.375 C-21.9375 4.715 -21.9375 4.055 -21.9375 3.375 C-14.47160631 0.38864252 -7.99828412 -0.08288377 0 0 Z " fill="#17F5F6" transform="translate(231.9375,199.625)"/>
<path d="M0 0 C1.11568359 -0.01160156 2.23136719 -0.02320313 3.38085938 -0.03515625 C10.43276754 -0.01036923 16.44691253 0.91342953 23.0625 3.375 C23.0625 4.035 23.0625 4.695 23.0625 5.375 C24.00609375 5.48714844 24.00609375 5.48714844 24.96875 5.6015625 C37.74152696 7.56364571 44.61007254 16.56055216 52.0625 26.375 C59.46711845 36.7924288 61.58154664 46.5732048 61.5 59.25 C61.51998047 60.34441406 61.53996094 61.43882812 61.56054688 62.56640625 C61.55535774 71.33603861 60.05347583 79.44607483 55.45092773 87.03076172 C53.86204103 89.35796864 53.86204103 89.35796864 53.6875 92.375 C52.86057754 96.34422783 51.02922108 97.68425297 48.0625 100.375 C47.4025 101.261875 46.7425 102.14875 46.0625 103.0625 C43.83217493 105.64131336 42.16859261 106.14891081 39.0625 107.375 C38.81886719 107.98988281 38.57523437 108.60476563 38.32421875 109.23828125 C36.42169377 112.46020436 33.91178423 113.09406518 30.5 114.5 C29.87391846 114.75934326 29.24783691 115.01868652 28.6027832 115.28588867 C23.80349669 117.21830927 19.13277625 118.42969426 14.0625 119.375 C13.7325 119.705 13.4025 120.035 13.0625 120.375 C8.86058092 120.63048149 4.64625181 120.56023966 0.4375 120.5625 C-0.73941406 120.57474609 -1.91632813 120.58699219 -3.12890625 120.59960938 C-14.3487707 120.61854053 -21.27797098 118.02336867 -30.9375 112.375 C-31.72640625 111.94445312 -32.5153125 111.51390625 -33.328125 111.0703125 C-39.33044619 107.52348634 -42.96303621 102.80838531 -46.89453125 97.1796875 C-48.8193123 94.35285912 -48.8193123 94.35285912 -51.19921875 92.2578125 C-52.9375 90.375 -52.9375 90.375 -52.9375 86.375 C-53.5975 86.375 -54.2575 86.375 -54.9375 86.375 C-57.22321429 77.94642857 -57.22321429 77.94642857 -56.9375 73.375 C-57.5975 73.375 -58.2575 73.375 -58.9375 73.375 C-59.08486747 69.12537572 -59.17225716 64.87642287 -59.25 60.625 C-59.29189453 59.43777344 -59.33378906 58.25054687 -59.37695312 57.02734375 C-59.4954828 48.35097148 -57.74265608 42.12000796 -53.9375 34.375 C-53.38830347 33.00299018 -52.84534486 31.62844265 -52.3125 30.25 C-50.9375 27.375 -50.9375 27.375 -47.9375 25.375 C-46.73299696 22.82316596 -46.73299696 22.82316596 -45.9375 20.375 C-45.2775 20.375 -44.6175 20.375 -43.9375 20.375 C-43.68613281 19.76527344 -43.43476563 19.15554687 -43.17578125 18.52734375 C-41.74762683 16.04496809 -40.60574988 15.3083159 -38.125 13.9375 C-35.30470348 12.29909033 -33.64958148 11.06601427 -31.375 8.625 C-28.29391152 5.78091833 -26.04916058 5.61686239 -21.9375 5.375 C-21.9375 4.715 -21.9375 4.055 -21.9375 3.375 C-14.47160631 0.38864252 -7.99828412 -0.08288377 0 0 Z M-13.9375 15.375 C-13.9375 16.035 -13.9375 16.695 -13.9375 17.375 C-14.948125 17.4575 -15.95875 17.54 -17 17.625 C-21.40466423 18.26827753 -24.27403325 19.83875379 -27.9375 22.375 C-28.95677372 24.02994981 -29.95506737 25.69791804 -30.9375 27.375 C-32.89509641 29.6799119 -34.94134734 31.87913881 -37 34.09375 C-45.61034147 44.2317327 -45.80362063 55.69061899 -44.9375 68.375 C-44.4777279 71.78202916 -43.86862954 75.06616466 -42.9375 78.375 C-42.2775 78.375 -41.6175 78.375 -40.9375 78.375 C-40.84597656 79.09945312 -40.75445312 79.82390625 -40.66015625 80.5703125 C-38.61981842 88.48902905 -30.42024063 95.69956888 -23.9375 100.375 C-20.49766568 102.18265878 -20.49766568 102.18265878 -16.9375 103.375 C-15.75414062 103.88933594 -14.57078125 104.40367187 -13.3515625 104.93359375 C-8.49431829 106.7542221 -3.94965698 106.78377356 1.1875 106.6875 C2.05503906 106.69072266 2.92257813 106.69394531 3.81640625 106.69726562 C15.23455566 106.6016799 25.90447023 101.34762 34.0625 93.375 C38.78604443 87.95003223 38.78604443 87.95003223 42.140625 81.65625 C43.0625 79.375 43.0625 79.375 45.0625 78.375 C48.55659912 70.26484333 49.05643673 61.05732963 48.0625 52.375 C46.67037637 49.22066404 46.67037637 49.22066404 45.0625 46.375 C44.23352647 43.72405791 43.67113308 41.09043988 43.0625 38.375 C42.4025 38.375 41.7425 38.375 41.0625 38.375 C40.93875 37.570625 40.815 36.76625 40.6875 35.9375 C40.378125 34.6690625 40.378125 34.6690625 40.0625 33.375 C39.4025 33.045 38.7425 32.715 38.0625 32.375 C37.65 31.6325 37.2375 30.89 36.8125 30.125 C33.09261132 24.27946065 27.38260398 20.92296985 21.0625 18.375 C20.4025 18.375 19.7425 18.375 19.0625 18.375 C19.0625 17.715 19.0625 17.055 19.0625 16.375 C12.63160319 14.5653004 6.38855888 14.18213225 -0.25 14.1875 C-1.02649902 14.18685547 -1.80299805 14.18621094 -2.60302734 14.18554688 C-6.50626814 14.22264832 -10.12684671 14.4242382 -13.9375 15.375 Z " fill="#16EFF1" transform="translate(231.9375,199.625)"/>
<path d="M0 0 C1.11568359 -0.01160156 2.23136719 -0.02320313 3.38085938 -0.03515625 C10.43276754 -0.01036923 16.44691253 0.91342953 23.0625 3.375 C23.0625 4.035 23.0625 4.695 23.0625 5.375 C24.00609375 5.48714844 24.00609375 5.48714844 24.96875 5.6015625 C37.74152696 7.56364571 44.61007254 16.56055216 52.0625 26.375 C59.46711845 36.7924288 61.58154664 46.5732048 61.5 59.25 C61.51998047 60.34441406 61.53996094 61.43882812 61.56054688 62.56640625 C61.55535774 71.33603861 60.05347583 79.44607483 55.45092773 87.03076172 C53.86204103 89.35796864 53.86204103 89.35796864 53.6875 92.375 C52.86057754 96.34422783 51.02922108 97.68425297 48.0625 100.375 C47.4025 101.261875 46.7425 102.14875 46.0625 103.0625 C43.83217493 105.64131336 42.16859261 106.14891081 39.0625 107.375 C38.81886719 107.98988281 38.57523437 108.60476563 38.32421875 109.23828125 C36.42169377 112.46020436 33.91178423 113.09406518 30.5 114.5 C29.87391846 114.75934326 29.24783691 115.01868652 28.6027832 115.28588867 C23.80349669 117.21830927 19.13277625 118.42969426 14.0625 119.375 C13.7325 119.705 13.4025 120.035 13.0625 120.375 C8.86058092 120.63048149 4.64625181 120.56023966 0.4375 120.5625 C-0.73941406 120.57474609 -1.91632813 120.58699219 -3.12890625 120.59960938 C-14.3487707 120.61854053 -21.27797098 118.02336867 -30.9375 112.375 C-31.72640625 111.94445312 -32.5153125 111.51390625 -33.328125 111.0703125 C-39.33044619 107.52348634 -42.96303621 102.80838531 -46.89453125 97.1796875 C-48.8193123 94.35285912 -48.8193123 94.35285912 -51.19921875 92.2578125 C-52.9375 90.375 -52.9375 90.375 -52.9375 86.375 C-53.5975 86.375 -54.2575 86.375 -54.9375 86.375 C-57.22321429 77.94642857 -57.22321429 77.94642857 -56.9375 73.375 C-57.5975 73.375 -58.2575 73.375 -58.9375 73.375 C-59.08486747 69.12537572 -59.17225716 64.87642287 -59.25 60.625 C-59.29189453 59.43777344 -59.33378906 58.25054687 -59.37695312 57.02734375 C-59.4954828 48.35097148 -57.74265608 42.12000796 -53.9375 34.375 C-53.38830347 33.00299018 -52.84534486 31.62844265 -52.3125 30.25 C-50.9375 27.375 -50.9375 27.375 -47.9375 25.375 C-46.73299696 22.82316596 -46.73299696 22.82316596 -45.9375 20.375 C-45.2775 20.375 -44.6175 20.375 -43.9375 20.375 C-43.68613281 19.76527344 -43.43476563 19.15554687 -43.17578125 18.52734375 C-41.74762683 16.04496809 -40.60574988 15.3083159 -38.125 13.9375 C-35.30470348 12.29909033 -33.64958148 11.06601427 -31.375 8.625 C-28.29391152 5.78091833 -26.04916058 5.61686239 -21.9375 5.375 C-21.9375 4.715 -21.9375 4.055 -21.9375 3.375 C-14.47160631 0.38864252 -7.99828412 -0.08288377 0 0 Z M-23.9375 9.375 C-23.9375 10.035 -23.9375 10.695 -23.9375 11.375 C-28.8875 12.86 -28.8875 12.86 -33.9375 14.375 C-33.9375 15.035 -33.9375 15.695 -33.9375 16.375 C-34.535625 16.63796875 -35.13375 16.9009375 -35.75 17.171875 C-41.03244708 20.07722089 -44.99115439 26.27555568 -47.9375 31.375 C-47.9375 32.695 -47.9375 34.015 -47.9375 35.375 C-48.5975 35.375 -49.2575 35.375 -49.9375 35.375 C-50.2675 38.015 -50.5975 40.655 -50.9375 43.375 C-51.5975 43.375 -52.2575 43.375 -52.9375 43.375 C-56.17530078 56.96219969 -54.27942642 68.79740278 -51.9375 82.375 C-51.2775 82.375 -50.6175 82.375 -49.9375 82.375 C-49.81375 82.973125 -49.69 83.57125 -49.5625 84.1875 C-48.98274015 86.63731348 -48.98274015 86.63731348 -46.9375 89.375 C-46.2775 89.375 -45.6175 89.375 -44.9375 89.375 C-44.86144531 90.26445312 -44.78539062 91.15390625 -44.70703125 92.0703125 C-42.65436539 100.88531411 -32.0124291 107.2406463 -24.7890625 111.87890625 C-20.99705172 113.86841327 -18.18979449 114.375 -13.9375 114.375 C-13.9375 115.035 -13.9375 115.695 -13.9375 116.375 C-8.88960075 117.20425072 -3.99489692 117.52922872 1.125 117.5 C1.80626953 117.50386719 2.48753906 117.50773437 3.18945312 117.51171875 C7.25093354 117.50391571 11.07847503 117.15813127 15.0625 116.375 C15.0625 115.715 15.0625 115.055 15.0625 114.375 C17.04817708 114.21223958 19.03385417 114.04947917 21.01953125 113.88671875 C23.51785654 113.2609432 24.32420601 112.22887205 26.0625 110.375 C27.82421875 109.453125 27.82421875 109.453125 29.75 108.625 C37.55515989 104.78639678 42.54025112 99.06861933 47.5625 92.125 C48.00835449 91.51027832 48.45420898 90.89555664 48.91357422 90.26220703 C51.47795588 86.66828427 51.47795588 86.66828427 52.0625 82.375 C52.7225 82.375 53.3825 82.375 54.0625 82.375 C54.3925 79.735 54.7225 77.095 55.0625 74.375 C55.7225 74.375 56.3825 74.375 57.0625 74.375 C57.15107863 71.0835089 57.2034104 67.79233195 57.25 64.5 C57.27513672 63.5821875 57.30027344 62.664375 57.32617188 61.71875 C57.38736227 55.92605915 56.68318633 51.09985774 54.79150391 45.61694336 C54.05510296 43.35225151 53.62493071 41.16125948 53.25 38.8125 C51.1908278 29.42267475 43.49969793 21.08894475 36.0625 15.375 C32.87796304 14.53660792 32.87796304 14.53660792 30.0625 14.375 C29.5675 12.89 29.5675 12.89 29.0625 11.375 C26.7525 11.045 24.4425 10.715 22.0625 10.375 C22.0625 9.715 22.0625 9.055 22.0625 8.375 C21.43601562 8.17003906 20.80953125 7.96507812 20.1640625 7.75390625 C19.34679687 7.48449219 18.52953125 7.21507812 17.6875 6.9375 C16.87539062 6.67066406 16.06328125 6.40382812 15.2265625 6.12890625 C13.0625 5.375 13.0625 5.375 11.0625 4.375 C7.73567201 4.1064449 4.39894376 4.14330696 1.0625 4.125 C0.15371094 4.104375 -0.75507813 4.08375 -1.69140625 4.0625 C-9.7597639 4.01659185 -16.77763056 5.61973818 -23.9375 9.375 Z " fill="#0E5897" transform="translate(231.9375,199.625)"/>
<path d="M0 0 C1.19568604 -0.0009668 1.19568604 -0.0009668 2.41552734 -0.00195312 C8.22517516 0.05003477 13.69812747 0.60757607 19.3125 2.1875 C19.3125 2.8475 19.3125 3.5075 19.3125 4.1875 C20.1375 4.414375 20.9625 4.64125 21.8125 4.875 C27.69849883 7.08224956 33.24551809 10.3071217 37.3125 15.1875 C37.8075 16.6725 37.8075 16.6725 38.3125 18.1875 C38.9725 18.5175 39.6325 18.8475 40.3125 19.1875 C40.9375 21.75 40.9375 21.75 41.3125 24.1875 C41.9725 24.1875 42.6325 24.1875 43.3125 24.1875 C43.50585938 24.86296875 43.69921875 25.5384375 43.8984375 26.234375 C44.15882813 27.12640625 44.41921875 28.0184375 44.6875 28.9375 C45.07035156 30.26007813 45.07035156 30.26007813 45.4609375 31.609375 C46.20106652 34.13915766 46.20106652 34.13915766 47.39453125 36.07421875 C50.65205226 43.57344797 48.41936193 54.48099804 46.26171875 62.015625 C45.24590186 64.33988093 44.1482968 65.47503838 42.3125 67.1875 C41.33775762 68.90954487 40.36372753 70.63201389 39.3984375 72.359375 C34.15583594 81.18504957 24.05021888 88.98865183 14.140625 91.8046875 C-0.03698675 93.72375649 -14.27167077 93.34331652 -26 84.4375 C-30.32555534 80.7100118 -34.14457212 76.66079887 -37.6875 72.1875 C-38.24566406 71.53265625 -38.80382812 70.8778125 -39.37890625 70.203125 C-40.6875 68.1875 -40.6875 68.1875 -40.6875 64.1875 C-41.3475 64.1875 -42.0075 64.1875 -42.6875 64.1875 C-45.87387922 52.86447384 -46.82947858 38.62908607 -42.09375 27.65234375 C-38.98272287 22.19940453 -35.02320305 17.42727239 -30.5 13.08984375 C-28.46242609 11.22137395 -28.46242609 11.22137395 -27.6875 8.1875 C-22.94434278 4.96215309 -19.37466647 3.65175849 -13.6875 3.1875 C-13.6875 2.5275 -13.6875 1.8675 -13.6875 1.1875 C-9.11140318 0.04575928 -4.68560336 -0.00388927 0 0 Z M-20.6875 9.1875 C-21.780625 9.80625 -22.87375 10.425 -24 11.0625 C-34.33735364 19.23622148 -38.58958443 27.31688705 -40.6875 40.1875 C-42.03489811 52.21842597 -40.26334747 62.50725045 -32.6875 72.1875 C-30.13291222 74.97617352 -27.5670857 77.73174943 -24.6875 80.1875 C-24.0275 80.1875 -23.3675 80.1875 -22.6875 80.1875 C-22.6875 80.8475 -22.6875 81.5075 -22.6875 82.1875 C-21.27421871 83.00587442 -19.85671654 83.81696219 -18.4375 84.625 C-17.64859375 85.07746094 -16.8596875 85.52992188 -16.046875 85.99609375 C-10.83514677 88.62784393 -5.71901287 88.37081025 0 88.375 C0.86044922 88.38724609 1.72089844 88.39949219 2.60742188 88.41210938 C12.60451864 88.4347102 20.59816089 86.84411437 28.3125 80.1875 C30.86417511 77.32881862 33.09165175 74.30589314 35.3125 71.1875 C36.116875 70.218125 36.92125 69.24875 37.75 68.25 C39.5137859 66.35305765 39.5137859 66.35305765 39.3125 64.1875 C39.9725 64.1875 40.6325 64.1875 41.3125 64.1875 C43.08239025 58.08807742 43.64913255 52.58720739 43.625 46.25 C43.64111328 45.40759766 43.65722656 44.56519531 43.67382812 43.69726562 C43.68029004 35.3032398 42.0220083 28.52897678 36.3125 22.1875 C35.42304688 20.87652344 35.42304688 20.87652344 34.515625 19.5390625 C28.46739823 11.09573793 21.37267819 6.49344276 11.3125 4.1875 C-0.0236744 2.52990433 -10.6345203 3.38060355 -20.6875 9.1875 Z " fill="#0D528B" transform="translate(231.6875,213.8125)"/>
<path d="M0 0 C1.11568359 -0.01160156 2.23136719 -0.02320313 3.38085938 -0.03515625 C10.43276754 -0.01036923 16.44691253 0.91342953 23.0625 3.375 C23.0625 4.035 23.0625 4.695 23.0625 5.375 C24.00609375 5.48714844 24.00609375 5.48714844 24.96875 5.6015625 C38.75876427 7.71990807 46.14843536 18.41511578 54.02734375 29.01953125 C62.28577367 41.51823081 60.29943483 57.03497487 60.0625 71.375 C59.0725 71.87 59.0725 71.87 58.0625 72.375 C58.07410156 71.26640625 58.08570313 70.1578125 58.09765625 69.015625 C58.10703792 67.55208502 58.11613771 66.08854322 58.125 64.625 C58.13756836 63.53058594 58.13756836 63.53058594 58.15039062 62.4140625 C58.19647041 58.35564119 58.19647041 58.35564119 57.56030273 54.36621094 C56.81261162 51.3754465 57.00353378 48.44124353 57.0625 45.375 C56.4025 45.375 55.7425 45.375 55.0625 45.375 C54.5675 41.415 54.5675 41.415 54.0625 37.375 C53.4025 37.375 52.7425 37.375 52.0625 37.375 C51.74539063 36.69695312 51.42828125 36.01890625 51.1015625 35.3203125 C47.0888321 27.31702149 41.63079999 18.34933713 32.8125 15.22265625 C31.905 14.94292969 30.9975 14.66320312 30.0625 14.375 C29.5675 13.385 29.5675 13.385 29.0625 12.375 C26.7484378 11.64424352 24.41421131 10.97361742 22.0625 10.375 C22.0625 9.715 22.0625 9.055 22.0625 8.375 C19.08398438 8.08203125 19.08398438 8.08203125 16.10546875 7.7890625 C14.0625 7.375 14.0625 7.375 11.0625 5.375 C7.72399445 4.94034906 4.36374902 5.05086073 1 5.0625 C0.09572266 5.04638672 -0.80855469 5.03027344 -1.74023438 5.01367188 C-8.30505901 5.00897936 -13.75065755 6.2796676 -19.9375 8.375 C-21.26732804 8.72205372 -22.59968855 9.06011999 -23.9375 9.375 C-23.9375 10.035 -23.9375 10.695 -23.9375 11.375 C-27.66715139 13.40935531 -29.60655042 14.375 -33.9375 14.375 C-33.9375 15.035 -33.9375 15.695 -33.9375 16.375 C-35.1243363 17.4646512 -36.36369706 18.49748565 -37.625 19.5 C-42.76579277 23.8660279 -46.52872145 28.68700921 -47.9375 35.375 C-48.5975 35.375 -49.2575 35.375 -49.9375 35.375 C-50.2675 38.015 -50.5975 40.655 -50.9375 43.375 C-51.5975 43.375 -52.2575 43.375 -52.9375 43.375 C-52.9375 44.035 -52.9375 44.695 -52.9375 45.375 C-53.5975 45.375 -54.2575 45.375 -54.9375 45.375 C-55.2675 54.285 -55.5975 63.195 -55.9375 72.375 C-56.5975 72.045 -57.2575 71.715 -57.9375 71.375 C-57.99641984 67.75007033 -58.0314009 64.12526666 -58.0625 60.5 C-58.07925781 59.48679687 -58.09601563 58.47359375 -58.11328125 57.4296875 C-58.16795057 48.90127411 -57.23208881 40.91386192 -54.0625 32.9375 C-53.75570312 32.13441406 -53.44890625 31.33132812 -53.1328125 30.50390625 C-51.74902899 28.03932451 -50.21817418 26.99620213 -47.9375 25.375 C-46.66902315 22.79001488 -46.66902315 22.79001488 -45.9375 20.375 C-45.2775 20.375 -44.6175 20.375 -43.9375 20.375 C-43.68613281 19.76527344 -43.43476563 19.15554687 -43.17578125 18.52734375 C-41.74762683 16.04496809 -40.60574988 15.3083159 -38.125 13.9375 C-35.30470348 12.29909033 -33.64958148 11.06601427 -31.375 8.625 C-28.29391152 5.78091833 -26.04916058 5.61686239 -21.9375 5.375 C-21.9375 4.715 -21.9375 4.055 -21.9375 3.375 C-14.47160631 0.38864252 -7.99828412 -0.08288377 0 0 Z " fill="#09637A" transform="translate(231.9375,199.625)"/>
<path d="M0 0 C2.64 0 5.28 0 8 0 C8 5.94 8 11.88 8 18 C9.35996094 17.98839844 10.71992188 17.97679687 12.12109375 17.96484375 C13.8932278 17.95546738 15.66536333 17.94636702 17.4375 17.9375 C18.33533203 17.92912109 19.23316406 17.92074219 20.15820312 17.91210938 C21.01220703 17.90888672 21.86621094 17.90566406 22.74609375 17.90234375 C23.53685303 17.89710693 24.3276123 17.89187012 25.14233398 17.88647461 C27 18 27 18 28 19 C28.125 22 28.125 22 28 25 C27 26 27 26 25.14233398 26.11352539 C23.95619507 26.10567017 23.95619507 26.10567017 22.74609375 26.09765625 C21.89208984 26.09443359 21.03808594 26.09121094 20.15820312 26.08789062 C19.26037109 26.07951172 18.36253906 26.07113281 17.4375 26.0625 C16.53580078 26.05798828 15.63410156 26.05347656 14.70507812 26.04882812 C12.47002411 26.03700244 10.23500398 26.01906638 8 26 C8 31.94 8 37.88 8 44 C5.36 44 2.72 44 0 44 C0 38.06 0 32.12 0 26 C-5.94 26 -11.88 26 -18 26 C-18 23.36 -18 20.72 -18 18 C-12.06 18 -6.12 18 0 18 C0 12.06 0 6.12 0 0 Z " fill="#08205C" transform="translate(229,238)"/>
<path d="M0 0 C1.19568604 -0.0009668 1.19568604 -0.0009668 2.41552734 -0.00195312 C8.22517516 0.05003477 13.69812747 0.60757607 19.3125 2.1875 C19.3125 2.8475 19.3125 3.5075 19.3125 4.1875 C20.1375 4.414375 20.9625 4.64125 21.8125 4.875 C27.69849883 7.08224956 33.24551809 10.3071217 37.3125 15.1875 C37.8075 16.6725 37.8075 16.6725 38.3125 18.1875 C38.9725 18.5175 39.6325 18.8475 40.3125 19.1875 C40.9375 21.75 40.9375 21.75 41.3125 24.1875 C41.9725 24.1875 42.6325 24.1875 43.3125 24.1875 C50.21756642 46.47483493 50.21756642 46.47483493 45.3125 57.1875 C44.9825 57.1875 44.6525 57.1875 44.3125 57.1875 C44.3031543 56.56294922 44.29380859 55.93839844 44.28417969 55.29492188 C44.23001063 52.4250237 44.14645805 49.55667515 44.0625 46.6875 C44.04832031 45.70523438 44.03414063 44.72296875 44.01953125 43.7109375 C43.799474 37.10921989 42.59478909 32.91181217 39.3125 27.1875 C39.3125 26.5275 39.3125 25.8675 39.3125 25.1875 C37.8275 24.6925 37.8275 24.6925 36.3125 24.1875 C34.93714661 22.21616014 33.61038956 20.21068078 32.3125 18.1875 C26.56373774 10.40976282 18.35022268 6.27107063 8.80712891 4.80175781 C-1.85016867 3.84156792 -11.26737654 4.77526826 -20.6875 10.1875 C-21.739375 10.744375 -22.79125 11.30125 -23.875 11.875 C-32.17274965 18.69759415 -39.78886986 26.86960122 -40.98291016 37.921875 C-41.47429529 44.67065901 -41.64400731 51.42225419 -41.6875 58.1875 C-42.0175 58.1875 -42.3475 58.1875 -42.6875 58.1875 C-45.07198432 47.81022423 -45.26341583 33.53575506 -39.94921875 24.1015625 C-36.57938957 19.36730154 -32.84738209 15.22132506 -28.6875 11.1875 C-28.3575 10.1975 -28.0275 9.2075 -27.6875 8.1875 C-22.94434278 4.96215309 -19.37466647 3.65175849 -13.6875 3.1875 C-13.6875 2.5275 -13.6875 1.8675 -13.6875 1.1875 C-9.11140318 0.04575928 -4.68560336 -0.00388927 0 0 Z " fill="#075D6D" transform="translate(231.6875,213.8125)"/>
<path d="M0 0 C0.95376567 3.20782086 1.11621181 6.08187396 1.09765625 9.421875 C1.09443359 10.44667969 1.09121094 11.47148437 1.08789062 12.52734375 C1.07951172 13.59082031 1.07113281 14.65429688 1.0625 15.75 C1.05798828 16.82894531 1.05347656 17.90789062 1.04882812 19.01953125 C1.03705727 21.67974383 1.02061399 24.33984365 1 27 C1.06058594 25.70964844 1.12117187 24.41929687 1.18359375 23.08984375 C1.26805881 21.37238745 1.35270377 19.65493998 1.4375 17.9375 C1.47681641 17.08994141 1.51613281 16.24238281 1.55664062 15.36914062 C1.80003389 10.51999791 2.22598042 5.79371788 3 1 C3.66 1 4.32 1 5 1 C4.835 2.11375 4.67 3.2275 4.5 4.375 C3.4496898 13.08191932 4.1678564 21.15205396 5.5625 29.80078125 C5.94415952 32.59166646 6.08434552 35.19023992 6 38 C6.66 38 7.32 38 8 38 C8.45375 38.969375 8.9075 39.93875 9.375 40.9375 C10.65786221 44.07079582 10.65786221 44.07079582 13 45 C13.37125 46.010625 13.7425 47.02125 14.125 48.0625 C17.9302909 57.24768493 27.64843064 63.33294654 36 68 C38.74051303 69.01718428 41.09894048 69.55368315 44 70 C44 70.66 44 71.32 44 72 C45.11375 71.979375 46.2275 71.95875 47.375 71.9375 C51 72 51 72 53 73 C55.204364 73.22950319 57.41392173 73.41075933 59.625 73.5625 C61.40777344 73.68818359 61.40777344 73.68818359 63.2265625 73.81640625 C64.14179688 73.87699219 65.05703125 73.93757813 66 74 C66 74.33 66 74.66 66 75 C50.03332217 75.61873025 36.22617784 75.04011475 23 65 C22.18917969 64.566875 21.37835938 64.13375 20.54296875 63.6875 C17.36025276 61.57546727 15.64549806 59.16905727 13.4375 56.0625 C10.35257497 51.72946727 10.35257497 51.72946727 6.72265625 47.87109375 C5 46 5 46 5 42 C4.34 42 3.68 42 3 42 C0.71428571 33.57142857 0.71428571 33.57142857 1 29 C0.34 29 -0.32 29 -1 29 C-1.02891546 24.54168018 -1.04676981 20.08338431 -1.0625 15.625 C-1.07087891 14.35398437 -1.07925781 13.08296875 -1.08789062 11.7734375 C-1.09111328 10.56171875 -1.09433594 9.35 -1.09765625 8.1015625 C-1.10289307 6.98088379 -1.10812988 5.86020508 -1.11352539 4.70556641 C-1 2 -1 2 0 0 Z " fill="#0D5090" transform="translate(174,244)"/>
<path d="M0 0 C14.39970583 2.48758963 14.39970583 2.48758963 20.44921875 6.9140625 C22.13238182 8.2025341 22.13238182 8.2025341 25 9 C24.102262 6.75712775 24.102262 6.75712775 21.5 5.5 C19 4 19 4 18 2 C30.60118541 8.06723742 41.16558881 20.52224849 46.0078125 33.75390625 C48.15371885 44.13586162 47.17439728 55.44494013 47 66 C46.01 66.495 46.01 66.495 45 67 C45.01160156 65.89140625 45.02320313 64.7828125 45.03515625 63.640625 C45.04453792 62.17708502 45.05363771 60.71354322 45.0625 59.25 C45.07506836 58.15558594 45.07506836 58.15558594 45.08789062 57.0390625 C45.13397041 52.98064119 45.13397041 52.98064119 44.49780273 48.99121094 C43.75011162 46.0004465 43.94103378 43.06624353 44 40 C43.34 40 42.68 40 42 40 C41.505 36.04 41.505 36.04 41 32 C40.34 32 39.68 32 39 32 C38.68289063 31.32195312 38.36578125 30.64390625 38.0390625 29.9453125 C34.0263321 21.94202149 28.56829999 12.97433713 19.75 9.84765625 C18.8425 9.56792969 17.935 9.28820312 17 9 C16.67 8.34 16.34 7.68 16 7 C13.6859378 6.26924352 11.35171131 5.59861742 9 5 C9 4.34 9 3.68 9 3 C7.700625 2.87625 6.40125 2.7525 5.0625 2.625 C2.84765625 2.4140625 2.84765625 2.4140625 1 2 C0.67 1.34 0.34 0.68 0 0 Z " fill="#07566B" transform="translate(245,205)"/>
<path d="M0 0 C1.14726562 -0.020625 2.29453125 -0.04125 3.4765625 -0.0625 C10.6732643 -0.0952868 16.75495545 0.70041931 23.5 3.25 C23.5 3.91 23.5 4.57 23.5 5.25 C24.8303125 5.37375 24.8303125 5.37375 26.1875 5.5 C29.96391434 6.35503721 31.61077308 7.74093452 34.5 10.25 C35.81138904 10.95885894 37.13777017 11.64456452 38.5 12.25 C38.5 12.91 38.5 13.57 38.5 14.25 C35.24520318 13.86708273 33.47597787 13.23337192 30.74609375 11.34375 C16.80596868 2.35228546 -4.77305186 3.50614947 -20.5 6.25 C-20.17 5.59 -19.84 4.93 -19.5 4.25 C-18.18 4.25 -16.86 4.25 -15.5 4.25 C-15.17 3.26 -14.84 2.27 -14.5 1.25 C-10.25658414 -0.87170793 -4.66071965 0.02039702 0 0 Z " fill="#076A72" transform="translate(231.5,199.75)"/>
<path d="M0 0 C0.95376567 3.20782086 1.11621181 6.08187396 1.09765625 9.421875 C1.09443359 10.44667969 1.09121094 11.47148437 1.08789062 12.52734375 C1.07951172 13.59082031 1.07113281 14.65429688 1.0625 15.75 C1.05798828 16.82894531 1.05347656 17.90789062 1.04882812 19.01953125 C1.03705727 21.67974383 1.02061399 24.33984365 1 27 C1.06058594 25.70964844 1.12117187 24.41929687 1.18359375 23.08984375 C1.26805881 21.37238745 1.35270377 19.65493998 1.4375 17.9375 C1.47681641 17.08994141 1.51613281 16.24238281 1.55664062 15.36914062 C1.80003389 10.51999791 2.22598042 5.79371788 3 1 C3.66 1 4.32 1 5 1 C4.835 2.11375 4.67 3.2275 4.5 4.375 C3.4496898 13.08191932 4.1678564 21.15205396 5.5625 29.80078125 C5.94415952 32.59166646 6.08434552 35.19023992 6 38 C6.66 38 7.32 38 8 38 C8.45375 38.969375 8.9075 39.93875 9.375 40.9375 C10.65786221 44.07079582 10.65786221 44.07079582 13 45 C13.625 48.0625 13.625 48.0625 14 51 C13.34 50.67 12.68 50.34 12 50 C12 49.34 12 48.68 12 48 C10.02 47.67 8.04 47.34 6 47 C5.67 45.35 5.34 43.7 5 42 C4.34 42 3.68 42 3 42 C0.71428571 33.57142857 0.71428571 33.57142857 1 29 C0.34 29 -0.32 29 -1 29 C-1.02891546 24.54168018 -1.04676981 20.08338431 -1.0625 15.625 C-1.07087891 14.35398437 -1.07925781 13.08296875 -1.08789062 11.7734375 C-1.09111328 10.56171875 -1.09433594 9.35 -1.09765625 8.1015625 C-1.10289307 6.98088379 -1.10812988 5.86020508 -1.11352539 4.70556641 C-1 2 -1 2 0 0 Z " fill="#0C6B8C" transform="translate(174,244)"/>
<path d="M0 0 C3.37082558 1.44463953 5.58037292 3.24663125 8 6 C8.33 6.99 8.66 7.98 9 9 C9.66 9.33 10.32 9.66 11 10 C11.625 12.5625 11.625 12.5625 12 15 C12.66 15 13.32 15 14 15 C20.90506642 37.28733493 20.90506642 37.28733493 16 48 C15.67 48 15.34 48 15 48 C14.9906543 47.37544922 14.98130859 46.75089844 14.97167969 46.10742188 C14.91751063 43.2375237 14.83395805 40.36917515 14.75 37.5 C14.73582031 36.51773438 14.72164063 35.53546875 14.70703125 34.5234375 C14.486974 27.92171989 13.28228909 23.72431217 10 18 C10 17.34 10 16.68 10 16 C9.01 15.67 8.02 15.34 7 15 C5.63636792 13.02053408 4.30581356 11.0180755 3 9 C2.236875 8.319375 1.47375 7.63875 0.6875 6.9375 C0.130625 6.298125 -0.42625 5.65875 -1 5 C-0.75 2.25 -0.75 2.25 0 0 Z " fill="#084E68" transform="translate(261,223)"/>
<path d="M0 0 C2.1519437 3.22791555 2.20086443 4.28400809 2 8 C2.66 8 3.32 8 4 8 C4.66 11.63 5.32 15.26 6 19 C6 15.04 6 11.08 6 7 C9.64052879 10.64052879 8.36957576 16.45521136 8.375 21.375 C8.39949219 22.50550781 8.42398437 23.63601563 8.44921875 24.80078125 C8.49067653 36.86499558 5.27390204 46.39844931 -2 56 C-3.31538327 51.84228506 -2.34433068 49.1120703 -1 45 C-0.34 45 0.32 45 1 45 C1.33 42.36 1.66 39.72 2 37 C2.66 37 3.32 37 4 37 C3.9177535 33.7074137 3.80505357 30.41649988 3.6875 27.125 C3.66494141 26.2071875 3.64238281 25.289375 3.61914062 24.34375 C3.39611806 18.58571297 2.52542233 13.60543512 0.65039062 8.15039062 C-0.18534387 5.38719639 -0.22616714 2.86478379 0 0 Z " fill="#0A5278" transform="translate(285,237)"/>
<path d="M0 0 C1 2 1 2 0.44140625 4.0390625 C0.15136719 4.89242187 -0.13867188 5.74578125 -0.4375 6.625 C-3.50896704 17.44623341 -3.56395338 29.01930012 2 39 C4.60379286 43.36765254 7.70041218 47.15048087 11 51 C9 50 7 49 5 48 C4.67 48.66 4.34 49.32 4 50 C2.82157218 48.59310148 1.65762602 47.17406375 0.5 45.75 C-0.1496875 44.96109375 -0.799375 44.1721875 -1.46875 43.359375 C-3 41 -3 41 -3 37 C-3.66 37 -4.32 37 -5 37 C-6.81143684 30.56292979 -7.21793334 24.27215185 -7.25 17.625 C-7.25902344 16.84012207 -7.26804688 16.05524414 -7.27734375 15.24658203 C-7.25565528 11.04534508 -6.92072203 8.84144407 -5 5 C-5 11.93 -5 18.86 -5 26 C-4.83032159 20.43701762 -4.83032159 20.43701762 -4.70214844 14.87304688 C-4.44901862 8.99510598 -2.92487447 5.10098108 0 0 Z " fill="#0B4F7C" transform="translate(194,241)"/>
<path d="M0 0 C0 0.66 0 1.32 0 2 C-0.70125 2.3403125 -1.4025 2.680625 -2.125 3.03125 C-11.84920226 7.99904898 -18.97245069 14.21137927 -24 24 C-24.5259375 24.99 -25.051875 25.98 -25.59375 27 C-27.74161852 32.10059244 -27.56895968 37.48125826 -27.6875 42.9375 C-27.72166016 44.00291016 -27.75582031 45.06832031 -27.79101562 46.16601562 C-27.87298226 48.77723846 -27.94229887 51.38814721 -28 54 C-28.33 54 -28.66 54 -29 54 C-31.37903625 43.64643422 -31.55892537 29.43440372 -26.33203125 19.984375 C-24.34934302 17.17716458 -22.26981793 14.57933856 -20 12 C-19.39414063 11.30777344 -18.78828125 10.61554688 -18.1640625 9.90234375 C-13.32870022 4.74972919 -7.3648708 0 0 0 Z " fill="#05294C" transform="translate(218,218)"/>
<path d="M0 0 C0 0.66 0 1.32 0 2 C0.66 2 1.32 2 2 2 C3.33783393 2.31478446 4.67203709 2.64587656 6 3 C4.41701974 3.4803318 2.83360022 3.95921612 1.25 4.4375 C0.36828125 4.70433594 -0.5134375 4.97117188 -1.421875 5.24609375 C-3.60565835 5.88468494 -5.78835498 6.46775833 -8 7 C-8 7.66 -8 8.32 -8 9 C-11.72965139 11.03435531 -13.66905042 12 -18 12 C-18 12.66 -18 13.32 -18 14 C-19.4609375 15.5078125 -19.4609375 15.5078125 -21.375 17.125 C-22.00148437 17.66382813 -22.62796875 18.20265625 -23.2734375 18.7578125 C-25 20 -25 20 -27 20 C-26.44841898 16.29305107 -25.11773346 14.89657629 -22.25 12.5625 C-19.74144881 10.49060604 -17.61459495 8.56759434 -15.4375 6.125 C-12.34835475 3.43189901 -10.02534519 3.23678501 -6 3 C-6 2.34 -6 1.68 -6 1 C-3.92446352 0.4465236 -2.15634036 0 0 0 Z " fill="#065364" transform="translate(216,202)"/>
<path d="M0 0 C0.66 0.33 1.32 0.66 2 1 C2.33 7.27 2.66 13.54 3 20 C4.65497356 16.69005287 4.10084335 13.00877 4.0625 9.375 C4.05798828 8.57320313 4.05347656 7.77140625 4.04882812 6.9453125 C4.03703168 4.96350994 4.01909605 2.98174567 4 1 C7.85013276 6.77519914 6.57123962 15.66646471 5.4296875 22.328125 C4.28630752 26.82943146 3.47386781 29.83101952 0 33 C-1.17574711 35.09989652 -1.17574711 35.09989652 -2 37 C-2.33 36.34 -2.66 35.68 -3 35 C-4.65 36.32 -6.3 37.64 -8 39 C-6.7580393 35.56072421 -5.44259716 32.74792181 -3 30 C-2.34 30 -1.68 30 -1 30 C-0.01168844 23.46313616 0.11883529 17.10422885 0.0625 10.5 C0.05798828 9.48679687 0.05347656 8.47359375 0.04882812 7.4296875 C0.03714593 4.95306173 0.02076582 2.47656343 0 0 Z " fill="#0C6D8B" transform="translate(274,248)"/>
<path d="M0 0 C3.79478709 1.26492903 5.23120463 3.1053503 8 6 C9.20567474 7.21098609 10.41411476 8.41922398 11.625 9.625 C13.75 11.75 15.875 13.875 18 16 C17.34 16 16.68 16 16 16 C15.34 16.66 14.68 17.32 14 18 C9.56218408 15.72985616 7.13463749 12.98816616 4.1875 9 C3.39730469 7.948125 2.60710937 6.89625 1.79296875 5.8125 C0 3 0 3 0 0 Z " fill="#0E6C9A" transform="translate(183,291)"/>
<path d="M0 0 C14.39970583 2.48758963 14.39970583 2.48758963 20.44921875 6.9140625 C22.13238182 8.2025341 22.13238182 8.2025341 25 9 C24.102262 6.75712775 24.102262 6.75712775 21.5 5.5 C19 4 19 4 18 2 C23.48020878 4.63861904 27.35564228 7.00588016 31 12 C29.68 12 28.36 12 27 12 C28.65 13.65 30.3 15.3 32 17 C31.67 17.66 31.34 18.32 31 19 C30.49210937 18.44570312 29.98421875 17.89140625 29.4609375 17.3203125 C25.51165633 13.16395292 22.71849112 10.39475393 17 9 C16.67 8.34 16.34 7.68 16 7 C13.6859378 6.26924352 11.35171131 5.59861742 9 5 C9 4.34 9 3.68 9 3 C7.700625 2.87625 6.40125 2.7525 5.0625 2.625 C2.84765625 2.4140625 2.84765625 2.4140625 1 2 C0.67 1.34 0.34 0.68 0 0 Z " fill="#0A7F88" transform="translate(245,205)"/>
<path d="M0 0 C-0.50614783 5.73634206 -3.78719091 9.00522451 -7.86328125 12.6796875 C-12.23670617 16.22937996 -15.35918088 17.76496587 -21 18 C-19 15 -19 15 -15.75 13.25 C-11.50017955 10.95279975 -8.97854038 7.72101711 -6 4 C-2.30769231 0 -2.30769231 0 0 0 Z " fill="#0C4682" transform="translate(271,283)"/>
<path d="M0 0 C4.80603496 4.2271568 5.78542694 10.19429473 6.2578125 16.37109375 C6.34372327 21.77733573 6.30433089 26.03329478 4 31 C3.67 31 3.34 31 3 31 C2.98018066 30.35450195 2.96036133 29.70900391 2.93994141 29.04394531 C2.84453672 26.11222779 2.73492029 23.18120768 2.625 20.25 C2.5940625 19.23421875 2.563125 18.2184375 2.53125 17.171875 C2.49257813 16.1921875 2.45390625 15.2125 2.4140625 14.203125 C2.3826416 13.30239258 2.3512207 12.40166016 2.31884766 11.47363281 C1.98625434 8.8933606 1.20966273 7.27495995 0 5 C-0.125 2.25 -0.125 2.25 0 0 Z " fill="#08295E" transform="translate(273,240)"/>
<path d="M0 0 C1.02158203 0.00322266 2.04316406 0.00644531 3.09570312 0.00976562 C4.15080078 0.01814453 5.20589844 0.02652344 6.29296875 0.03515625 C7.36740234 0.03966797 8.44183594 0.04417969 9.54882812 0.04882812 C12.19276558 0.06057896 14.83658827 0.07700838 17.48046875 0.09765625 C17.97546875 1.08765625 17.97546875 1.08765625 18.48046875 2.09765625 C17.19914062 2.14664063 15.9178125 2.195625 14.59765625 2.24609375 C4.43464487 2.67234171 -5.47962226 3.38555256 -15.51953125 5.09765625 C-15.18953125 4.43765625 -14.85953125 3.77765625 -14.51953125 3.09765625 C-13.19953125 3.09765625 -11.87953125 3.09765625 -10.51953125 3.09765625 C-10.51953125 2.43765625 -10.51953125 1.77765625 -10.51953125 1.09765625 C-6.94603084 0.27867003 -3.66293646 -0.02046333 0 0 Z " fill="#021834" transform="translate(226.51953125,200.90234375)"/>
<path d="M0 0 C0.33 0 0.66 0 1 0 C0.34 10.56 -0.32 21.12 -1 32 C-1.66 31.67 -2.32 31.34 -3 31 C-3.05837668 27.29173349 -3.09372277 23.5835863 -3.125 19.875 C-3.15013672 18.30492187 -3.15013672 18.30492187 -3.17578125 16.703125 C-3.21508197 10.49361075 -2.8161529 5.6323058 0 0 Z " fill="#082F63" transform="translate(177,240)"/>
<path d="M0 0 C0.33 0.33 0.66 0.66 1 1 C2.670625 1.185625 2.670625 1.185625 4.375 1.375 C7.90207504 1.98311639 8.94362388 2.21784407 11 5 C9.65228516 4.75443359 9.65228516 4.75443359 8.27734375 4.50390625 C2.73058673 3.71151239 -2.84740921 3.8943717 -8.4375 3.9375 C-9.55060547 3.94201172 -10.66371094 3.94652344 -11.81054688 3.95117188 C-14.54042101 3.96288807 -17.27018174 3.97929301 -20 4 C-19 2 -19 2 -16.1875 0.875 C-10.93019431 -0.51889942 -5.3936247 -0.36581366 0 0 Z " fill="#041439" transform="translate(239,214)"/>
<path d="M0 0 C8.71880788 0.63409512 16.06506244 3.66543265 23 9 C23 9.66 23 10.32 23 11 C19.18559859 10.55124689 16.96733473 9.33682297 13.88671875 7.11328125 C10.58320768 5.16400453 6.92580832 4.11612093 3.29296875 2.9296875 C1 2 1 2 0 0 Z " fill="#031E3A" transform="translate(247,203)"/>
<path d="M0 0 C1 2 1 2 1 5 C1.66 4.67 2.32 4.34 3 4 C3 8 3 8 0.75 10.4375 C-0.1575 11.283125 -1.065 12.12875 -2 13 C-3.35555293 14.64864545 -4.69631653 16.31003995 -6 18 C-6.66 17.67 -7.32 17.34 -8 17 C-6.69791667 15.50260417 -5.39583333 14.00520833 -4.09375 12.5078125 C-2.80427542 11.04063579 -2.80427542 11.04063579 -3 9 C-5.475 10.485 -5.475 10.485 -8 12 C-6.59023295 8.96147295 -4.91129772 6.4060405 -2.875 3.75 C-2.06675781 2.69039063 -2.06675781 2.69039063 -1.2421875 1.609375 C-0.83226562 1.07828125 -0.42234375 0.5471875 0 0 Z " fill="#0F8DAB" transform="translate(282,287)"/>
<path d="M0 0 C0.33 0 0.66 0 1 0 C0.979375 0.969375 0.95875 1.93875 0.9375 2.9375 C0.64381501 5.87465895 0.64381501 5.87465895 2 7 C2.33 5.68 2.66 4.36 3 3 C3.33 3.66 3.66 4.32 4 5 C2.890625 7.75 2.890625 7.75 1.25 11 C0.71890625 12.0725 0.1878125 13.145 -0.359375 14.25 C-2 17 -2 17 -5 19 C-4.125 11.375 -4.125 11.375 -3 8 C-2.34 8 -1.68 8 -1 8 C-0.67 5.36 -0.34 2.72 0 0 Z " fill="#0C648A" transform="translate(287,274)"/>
<path d="M0 0 C0.33 0 0.66 0 1 0 C0.125 7.875 0.125 7.875 -1 9 C-1.15740605 10.70563778 -1.25093392 12.41727244 -1.31640625 14.12890625 C-1.35830078 15.16337891 -1.40019531 16.19785156 -1.44335938 17.26367188 C-1.48267578 18.35228516 -1.52199219 19.44089844 -1.5625 20.5625 C-1.60568359 21.65498047 -1.64886719 22.74746094 -1.69335938 23.87304688 C-1.79982068 26.58189564 -1.90183516 29.29083992 -2 32 C-2.33 32 -2.66 32 -3 32 C-4.90651695 23.82921306 -5.85383403 10.70766806 -2 3 C-1.34 3 -0.68 3 0 3 C0 2.01 0 1.02 0 0 Z " fill="#071E57" transform="translate(192,240)"/>
<path d="M0 0 C8.58 0 17.16 0 26 0 C26 0.66 26 1.32 26 2 C19.65176798 4.30844801 13.70518586 4.19818283 7 4 C7 3.34 7 2.68 7 2 C4.69 2 2.38 2 0 2 C0 1.34 0 0.68 0 0 Z " fill="#0C2F7E" transform="translate(220,302)"/>
<path d="M0 0 C0.33 0 0.66 0 1 0 C1 6.93 1 13.86 1 21 C1.66 21 2.32 21 3 21 C3.33 23.97 3.66 26.94 4 30 C2 29 2 29 0.9375 26.375 C-0.75107318 20.29613655 -1.13745961 14.417105 -1.125 8.125 C-1.12757813 6.80757813 -1.13015625 5.49015625 -1.1328125 4.1328125 C-1 1 -1 1 0 0 Z " fill="#13C9CF" transform="translate(172,252)"/>
<path d="M0 0 C0.99 0 1.98 0 3 0 C4.30433619 5.93627021 4.11086318 11.83332252 4.0625 17.875 C4.05798828 18.94492187 4.05347656 20.01484375 4.04882812 21.1171875 C4.03709749 23.74484986 4.02068228 26.37239538 4 29 C3.34 29.33 2.68 29.66 2 30 C2.02320313 29.00742187 2.04640625 28.01484375 2.0703125 26.9921875 C2.21639368 17.77081307 1.59399661 9.10855204 0 0 Z " fill="#072158" transform="translate(288,242)"/>
<path d="M0 0 C0.66 0.33 1.32 0.66 2 1 C1.525625 1.37125 1.05125 1.7425 0.5625 2.125 C-1.24116989 3.96248468 -1.24116989 3.96248468 -1.4375 6.8125 C-2.1140108 10.64606118 -3.70990955 12.89729681 -6 16 C-6.33 15.34 -6.66 14.68 -7 14 C-6.67 13.34 -6.34 12.68 -6 12 C-8.97 14.475 -8.97 14.475 -12 17 C-10.75023244 13.34683329 -10.32901247 12.21934164 -7 10 C-5.79549696 7.44816596 -5.79549696 7.44816596 -5 5 C-4.34 5 -3.68 5 -3 5 C-2.690625 4.360625 -2.38125 3.72125 -2.0625 3.0625 C-1 1 -1 1 0 0 Z " fill="#096778" transform="translate(191,215)"/>
<path d="M0 0 C0.33 0.99 0.66 1.98 1 3 C-1.88919671 7.84530654 -6.23006431 11.16075257 -11 14 C-10.49270927 9.56120611 -9.06272483 7.22827752 -6 4 C-4.04148656 2.60644236 -2.04872887 1.25717453 0 0 Z " fill="#0C4586" transform="translate(279,295)"/>
<path d="M0 0 C0 0.66 0 1.32 0 2 C-0.99 2 -1.98 2 -3 2 C-3.08636719 2.57492188 -3.17273438 3.14984375 -3.26171875 3.7421875 C-4.20665594 6.63199542 -5.64466233 8.00944784 -7.8125 10.125 C-8.49957031 10.80820313 -9.18664062 11.49140625 -9.89453125 12.1953125 C-11.86716151 13.88613844 -13.63025818 14.96689907 -16 16 C-13.54199486 10.57543694 -6.47895251 0 0 0 Z " fill="#13D4D6" transform="translate(211,224)"/>
<path d="M0 0 C-4.34242429 4.34242429 -8.13551546 4.7444669 -14 5 C-12 3 -12 3 -9.375 2.875 C-8.59125 2.91625 -7.8075 2.9575 -7 3 C-7 2.34 -7 1.68 -7 1 C-7.99 1.495 -7.99 1.495 -9 2 C-11.88370333 2.07194869 -14.74239664 2.09291708 -17.625 2.0625 C-18.42679688 2.05798828 -19.22859375 2.05347656 -20.0546875 2.04882812 C-22.03649006 2.03703168 -24.01825433 2.01909605 -26 2 C-26 1.67 -26 1.34 -26 1 C-22.60536343 0.63367876 -19.20920203 0.28410225 -15.8125 -0.0625 C-14.85279297 -0.16626953 -13.89308594 -0.27003906 -12.90429688 -0.37695312 C-11.50727539 -0.51713867 -11.50727539 -0.51713867 -10.08203125 -0.66015625 C-8.80162964 -0.79369507 -8.80162964 -0.79369507 -7.49536133 -0.92993164 C-4.84302269 -1.00440784 -2.5737747 -0.61472301 0 0 Z " fill="#0E6494" transform="translate(253,301)"/>
<path d="M0 0 C2.12560437 0.30836232 4.25047065 0.62181614 6.375 0.9375 C8.15003906 1.19853516 8.15003906 1.19853516 9.9609375 1.46484375 C13 2 13 2 15 3 C17.204364 3.22950319 19.41392173 3.41075933 21.625 3.5625 C22.81351563 3.64628906 24.00203125 3.73007812 25.2265625 3.81640625 C26.59941406 3.90728516 26.59941406 3.90728516 28 4 C28 4.33 28 4.66 28 5 C25.02026385 5.08184423 22.04283168 5.14089764 19.0625 5.1875 C17.81629883 5.22520508 17.81629883 5.22520508 16.54492188 5.26367188 C10.49797101 5.33425885 5.60483651 4.25464398 0 2 C0 1.34 0 0.68 0 0 Z " fill="#0D3389" transform="translate(212,314)"/>
<path d="M0 0 C0.33 0.99 0.66 1.98 1 3 C1.66 3 2.32 3 3 3 C3.66 2.01 4.32 1.02 5 0 C5.45375 0.969375 5.9075 1.93875 6.375 2.9375 C7.65786221 6.07079582 7.65786221 6.07079582 10 7 C10.625 10.0625 10.625 10.0625 11 13 C10.34 12.67 9.68 12.34 9 12 C9 11.34 9 10.68 9 10 C6.03 9.505 6.03 9.505 3 9 C2.67 7.35 2.34 5.7 2 4 C1.34 4 0.68 4 0 4 C0 2.68 0 1.36 0 0 Z " fill="#0E769A" transform="translate(177,282)"/>
<path d="M0 0 C0.66 0 1.32 0 2 0 C1.46960703 4.057041 -0.57643552 5.94844566 -3.4375 8.75 C-4.24058594 9.54921875 -5.04367188 10.3484375 -5.87109375 11.171875 C-8 13 -8 13 -10 13 C-8.59835111 8.23439379 -5.84588526 5.04117557 -2 2 C-1.34 2 -0.68 2 0 2 C0 1.34 0 0.68 0 0 Z " fill="#12CED0" transform="translate(198,214)"/>
<path d="M0 0 C3.42634831 1.1421161 3.96357826 1.9540851 6 4.8125 C6.7425 5.84310547 6.7425 5.84310547 7.5 6.89453125 C7.995 7.58933594 8.49 8.28414063 9 9 C9.99667465 10.33582088 10.99570107 11.66990172 12 13 C8.79920539 12.67936772 7.32266215 12.31330058 4.98046875 10.0390625 C4.38878906 9.24242187 3.79710937 8.44578125 3.1875 7.625 C2.58292969 6.83351563 1.97835937 6.04203125 1.35546875 5.2265625 C0 3 0 3 0 0 Z " fill="#0C3D80" transform="translate(183,291)"/>
<path d="M0 0 C0.66 0.33 1.32 0.66 2 1 C1.34 1.66 0.68 2.32 0 3 C-0.16681109 6.08347826 -0.16681109 6.08347826 0 9 C-1.65 9.33 -3.3 9.66 -5 10 C-5 9.01 -5 8.02 -5 7 C-7.31 7.66 -9.62 8.32 -12 9 C-10.50321499 6.00642998 -7.9714288 5.44823416 -5.0078125 4.09765625 C-2.93975066 2.96706213 -1.57483204 1.73825801 0 0 Z " fill="#0F80A8" transform="translate(269,302)"/>
<path d="M0 0 C4.84743691 2.42371846 5.23044009 4.04523226 7 9 C7 9.66 7 10.32 7 11 C6.01 11 5.02 11 4 11 C3.67 11.99 3.34 12.98 3 14 C2.01 9.38 1.02 4.76 0 0 Z " fill="#084968" transform="translate(284,231)"/>
<path d="M0 0 C2.1519437 3.22791555 2.20086443 4.28400809 2 8 C2.66 8 3.32 8 4 8 C4.83211276 13.03854106 5.1078534 17.8125662 5.0625 22.9375 C5.05573242 23.96327148 5.05573242 23.96327148 5.04882812 25.00976562 C5.0371956 26.67321604 5.01926694 28.3366205 5 30 C4.67 30 4.34 30 4 30 C3.96261719 29.10539062 3.92523438 28.21078125 3.88671875 27.2890625 C3.51908196 20.52742891 2.81241306 14.54464716 0.6328125 8.1328125 C-0.18472321 5.37741438 -0.22519201 2.85243217 0 0 Z " fill="#0FA6B0" transform="translate(285,237)"/>
<path d="M0 0 C1.37468062 2.74936123 0.56769668 3.79454549 -0.375 6.6875 C-2.43237232 13.75208442 -2.71352145 20.67997919 -3 28 C-3.33 28 -3.66 28 -4 28 C-4.11760715 24.83365364 -4.18771024 21.66787926 -4.25 18.5 C-4.30027344 17.1696875 -4.30027344 17.1696875 -4.3515625 15.8125 C-4.44559663 9.41817899 -3.26746467 5.50580662 0 0 Z " fill="#0C8696" transform="translate(194,241)"/>
<path d="M0 0 C0.66 0.33 1.32 0.66 2 1 C0.68 1.33 -0.64 1.66 -2 2 C-2 2.66 -2 3.32 -2 4 C-10.25 4 -18.5 4 -27 4 C-27 3.67 -27 3.34 -27 3 C-26.39526855 2.98018066 -25.79053711 2.96036133 -25.16748047 2.93994141 C-22.40291491 2.84413701 -19.63904826 2.73468445 -16.875 2.625 C-15.44800781 2.57859375 -15.44800781 2.57859375 -13.9921875 2.53125 C-8.92705165 2.32020267 -4.79857015 1.76305293 0 0 Z " fill="#13BED0" transform="translate(251,317)"/>
<path d="M0 0 C15.37096241 2.7794069 15.37096241 2.7794069 20 7 C20 7.66 20 8.32 20 9 C19.01 9 18.02 9 17 9 C16.67 8.34 16.34 7.68 16 7 C13.6859378 6.26924352 11.35171131 5.59861742 9 5 C9 4.34 9 3.68 9 3 C7.700625 2.87625 6.40125 2.7525 5.0625 2.625 C2.84765625 2.4140625 2.84765625 2.4140625 1 2 C0.67 1.34 0.34 0.68 0 0 Z " fill="#0FB8BA" transform="translate(245,205)"/>
<path d="M0 0 C2 3 2 3 2 5 C2.66 5 3.32 5 4 5 C4.33 6.65 4.66 8.3 5 10 C4.34 9.67 3.68 9.34 3 9 C2.34 9.66 1.68 10.32 1 11 C0.67 9.35 0.34 7.7 0 6 C-0.99 5.67 -1.98 5.34 -3 5 C-3.6875 2.9375 -3.6875 2.9375 -4 1 C-3.01 1.33 -2.02 1.66 -1 2 C-0.67 1.34 -0.34 0.68 0 0 Z " fill="#085871" transform="translate(271,233)"/>
<path d="M0 0 C0.33 0 0.66 0 1 0 C0.67 3.96 0.34 7.92 0 12 C-0.66 12 -1.32 12 -2 12 C-2.33 12.99 -2.66 13.98 -3 15 C-3.22552339 9.36191513 -2.52663487 5.05326974 0 0 Z " fill="#061D51" transform="translate(177,240)"/>
<path d="M0 0 C1.33333333 0.66666667 2.66666667 1.33333333 4 2 C5.0828125 2.433125 5.0828125 2.433125 6.1875 2.875 C8 4 8 4 8.75 6.125 C8.87375 7.053125 8.87375 7.053125 9 8 C2.25 5.25 2.25 5.25 0 3 C0 2.01 0 1.02 0 0 Z " fill="#0B3E7E" transform="translate(199,289)"/>
<path d="M0 0 C1 2 1 2 0.43359375 4.0234375 C-1.87765506 9.47979744 -3.71765307 12.2387732 -9 15 C-7.9145018 12.55762905 -6.76291301 10.70937724 -5.0625 8.625 C-2.91075519 5.8864157 -1.46512401 3.15001662 0 0 Z " fill="#11ADBD" transform="translate(275,278)"/>
<path d="M0 0 C0.33 0.66 0.66 1.32 1 2 C1.66 2.33 2.32 2.66 3 3 C1.8803014 4.00593243 0.7540588 5.0045849 -0.375 6 C-1.00148437 6.556875 -1.62796875 7.11375 -2.2734375 7.6875 C-4 9 -4 9 -6 9 C-5.52797514 4.75177626 -3.03344482 2.80010291 0 0 Z " fill="#042B47" transform="translate(195,213)"/>
<path d="M0 0 C4.01325426 0.83032847 6.33717346 2.05310494 8.75 5.5 C9.36875 6.7375 9.36875 6.7375 10 8 C9.67 8.66 9.34 9.32 9 10 C5.73991357 6.83047153 2.77762123 3.60062011 0 0 Z " fill="#041E41" transform="translate(270,215)"/>
<path d="M0 0 C3.11373372 1.49920512 6.12228205 3.08152136 9 5 C9 5.66 9 6.32 9 7 C4.59885603 6.49701212 2.28804981 4.91227269 -1 2 C-0.67 1.34 -0.34 0.68 0 0 Z " fill="#042742" transform="translate(261,207)"/>
<path d="M0 0 C0.66 0 1.32 0 2 0 C3 3 3 3 2.0625 5.1875 C1.5365625 6.0846875 1.5365625 6.0846875 1 7 C0.67 6.34 0.34 5.68 0 5 C-1.65 6.32 -3.3 7.64 -5 9 C-3.7580393 5.56072421 -2.44259716 2.74792181 0 0 Z " fill="#0C618B" transform="translate(271,278)"/>
<path d="M0 0 C0.66 0 1.32 0 2 0 C1.69381595 3.67420866 1.24228216 4.78135513 -1.5625 7.3125 C-2.366875 7.869375 -3.17125 8.42625 -4 9 C-4 4.9666466 -2.39120082 3.16482462 0 0 Z " fill="#0A3274" transform="translate(269,283)"/>
<path d="M0 0 C2.68433048 2.45091043 3.91789741 4.28241384 4.09765625 8.04296875 C4.06510417 10.02864583 4.03255208 12.01432292 4 14 C3.67 14 3.34 14 3 14 C-0.44419134 4.58997722 -0.44419134 4.58997722 0 0 Z " fill="#061D50" transform="translate(273,240)"/>
<path d="M0 0 C0 0.66 0 1.32 0 2 C-3.72965139 4.03435531 -5.66905042 5 -10 5 C-9.67 4.01 -9.34 3.02 -9 2 C-5.82757352 0.68964993 -3.44118336 0 0 0 Z " fill="#042244" transform="translate(218,218)"/>
<path d="M0 0 C5.45479185 0.56820748 9.91059256 1.94637945 15 4 C10.06062889 5.52730554 6.16776364 4.0005063 1.5625 1.875 C1.046875 1.58625 0.53125 1.2975 0 1 C0 0.67 0 0.34 0 0 Z " fill="#119DBA" transform="translate(208,315)"/>
<path d="M0 0 C0.33 0 0.66 0 1 0 C1.3125 2.1875 1.3125 2.1875 1 5 C-1.5 7.8125 -1.5 7.8125 -4 10 C-3.52371389 5.8086822 -2.89509268 3.13635041 0 0 Z " fill="#0B3375" transform="translate(286,283)"/>
<path d="M0 0 C4.0042343 3.49087093 5.62671065 5.64951939 6 11 C5.67 10.34 5.34 9.68 5 9 C4.34 8.67 3.68 8.34 3 8 C1 7 1 7 0 5 C0.66 4.67 1.32 4.34 2 4 C1.34 2.68 0.68 1.36 0 0 Z " fill="#063F5A" transform="translate(277,219)"/>
<path d="M0 0 C0 3.65351863 -0.88942301 5.06026776 -3 8 C-5.1875 9.3125 -5.1875 9.3125 -7 10 C-5.33248852 6.05860922 -2.77289351 3.2107188 0 0 Z " fill="#0FB2B8" transform="translate(202,230)"/>
<path d="M0 0 C0 0.99 0 1.98 0 3 C-4.625 5.125 -4.625 5.125 -8 4 C-5.57415142 1.34311822 -3.76063134 0 0 0 Z " fill="#0D3A87" transform="translate(264,309)"/>
<path d="M0 0 C2.64 0 5.28 0 8 0 C7.67 0.99 7.34 1.98 7 3 C5.02 3 3.04 3 1 3 C0.67 2.01 0.34 1.02 0 0 Z " fill="#13B8CC" transform="translate(229,282)"/>
<path d="M0 0 C0.66 0 1.32 0 2 0 C1.1875 2.9375 1.1875 2.9375 0 6 C-0.99 6.33 -1.98 6.66 -3 7 C-2.25 2.25 -2.25 2.25 0 0 Z " fill="#052148" transform="translate(183,227)"/>
<path d="M0 0 C0.93423645 3.01031744 1.04449911 3.86650268 0 7 C-2.0625 7.6875 -2.0625 7.6875 -4 8 C-2.87548273 5.0280615 -1.77706209 2.66559313 0 0 Z " fill="#074361" transform="translate(194,235)"/>
</svg>
